<?xml version="1.0" encoding="UTF-8"?>
<svg id="Layer_1" data-name="Layer 1" xmlns="http://www.w3.org/2000/svg" viewBox="0 0 1024 210.69">
  <g>
    <path d="m122.68.47c.24-.06.92-1.28,2.91.47,38.19,33.48,72.65,23.99,74.61,23.52.59-.14,1.01.38,1.18.81,44.52,115.71-56.77,183.09-76.5,185.39-15.09,1.76-126.65-68.19-80.31-181.45.11-.27.33-1.08.62-1.45.36-.46,1.29-.2,1.51-.17C88.41,32.81,122.68.47,122.68.47Z" style="fill: #333b8c;"/>
    <path d="m122.69,4.01c.24-.06.89-1.24,2.82.45,37.04,32.48,70.47,23.27,72.37,22.82.59-.14,1,.37,1.15.78,43.19,112.26-55.08,177.63-74.22,179.86-14.65,1.71-122.87-66.16-77.92-176.03.11-.26.33-1.05.61-1.41.35-.44,1.26-.19,1.47-.16,40.48,5.07,73.72-26.31,73.72-26.31Z" style="fill: #f9da00;"/>
    <path d="m122.72,14.15c.22-.05.81-1.12,2.56.41,33.57,29.44,63.86,21.09,65.58,20.68.52-.12.89.33,1.04.71,39.14,101.72-49.91,160.97-67.26,162.98-13.27,1.54-111.34-59.95-70.61-159.52.1-.24.29-.95.55-1.28.32-.41,1.14-.17,1.33-.15,36.69,4.6,66.8-23.84,66.8-23.84Z" style="fill: #333b8c;"/>
    <g>
      <path d="m245.94,135.64c-.04.25-.1.51-.14.76-.26,1.49-.51,2.97-.79,4.46-.25,1.35-.8,2.56-1.6,3.7-1.15,1.63-2.55,2.97-4.19,4.09-.76.53-1.52,1.08-2.26,1.62-.11.08-.21.16-.33.27.1.05.16.09.23.11.89.29,1.81.3,2.72.18,1.5-.2,2.9-.72,4.18-1.53.66-.42,1.35-.81,2.07-1.24-.02.15-.03.25-.05.34-.21.82-.42,1.64-.64,2.45-.21.81-.59,1.56-1.03,2.27-.21.33-.42.66-.63,1-.98,1.68-2.47,2.72-4.28,3.28-1.16.36-2.32.72-3.45,1.14-.97.36-1.97.62-3.01.73-1.12.11-2.23.02-3.32-.22-.86-.19-1.73-.34-2.57-.57-.83-.22-1.64-.5-2.45-.77-1.87-.64-3.79-1.09-5.74-1.4-.08-.01-.16,0-.3,0v.57c0,1.25,0,2.5.02,3.75.01,1.02-.47,1.74-1.31,2.26-.78.49-1.64.74-2.53.9-1.14.21-2.29.27-3.45.14-.33-.04-.66-.11-.99-.15-.36-.04-.74-.12-1.09-.09-1.05.06-2.09.16-3.13.26-.13.01-.27.07-.39.15-6.41,4.15-13.26,7.49-20.29,10.45-5.84,2.45-11.79,4.6-17.8,6.6-3.07,1.02-6.15,2.03-9.24,3.02-2.97.95-5.99,1.69-9.05,2.27-2,.38-4,.73-6,1.05-1.41.22-2.83.38-4.24.53-1.74.18-3.48.36-5.22.47-4.42.28-8.84.44-13.27.26-1.48-.06-2.95-.1-4.42-.18-1.23-.06-2.44-.16-3.67-.26-1.15-.09-2.32-.19-3.48-.31-1.14-.12-2.27-.26-3.4-.4-1.08-.14-2.17-.28-3.25-.44-1.4-.21-2.8-.41-4.19-.67-2.15-.4-4.3-.81-6.43-1.28-4.69-1.02-9.32-2.29-13.87-3.79-3.15-1.04-6.26-2.17-9.31-3.46-.75-.31-1.46-.7-2.18-1.07-5.31-2.71-10.62-5.43-15.93-8.14-1.86-.94-3.65-2-5.41-3.12-.73-.45-1.48-.85-2.28-1.15-1.21-.45-2.47-.54-3.76-.5-1.44.04-2.88.07-4.32.03-1.15-.03-2.23-.42-3.31-.81-.56-.2-1.05-.52-1.47-.93-.28-.27-.53-.56-.78-.84-.49-.55-.7-1.21-.72-1.93,0-.39,0-.79-.02-1.18,0-.14-.01-.27-.04-.46-.18.08-.33.14-.48.21-1.37.6-2.75,1.18-4.19,1.6-2.24.65-4.53.94-6.87.84-2.38-.11-4.72-.49-6.98-1.32-1.89-.7-3.52-1.81-5.01-3.15-.08-.07-.15-.16-.21-.24-.28-.43-.57-.85-.86-1.27-.32-.45-.59-.92-.8-1.43-.28-.72-.58-1.43-.88-2.15-.03-.09-.05-.18-.1-.31.12.04.21.05.29.08.79.29,1.57.6,2.36.89.98.36,2,.53,3.03.57.88.04,1.76.05,2.65.07.79.02,1.55-.15,2.32-.31.03,0,.06-.03.12-.07-.09-.05-.16-.11-.23-.15-.84-.42-1.68-.85-2.51-1.28-1.6-.82-3.06-1.83-4.3-3.15-.75-.8-1.57-1.56-2.35-2.34-.23-.23-.46-.45-.68-.68-.36-.36-.63-.77-.85-1.23-.47-.98-.94-1.95-1.41-2.92-.06-.11-.15-.2-.23-.3v-.07c.13.06.27.11.39.17.93.53,1.86,1.07,2.79,1.59.25.15.52.29.79.4,1.08.47,2.16.93,3.31,1.2.36.09.7.21,1.05.33,1.16.38,2.31.81,3.56.85.53.02,1.07.12,1.6.08.92-.08,1.83-.31,2.68-.67.73-.31,1.47-.6,2.2-.93.39-.18.79-.39,1.14-.65.66-.49,1.34-.95,2.07-1.31.97-.48,1.82-1.12,2.59-1.87.31-.3.61-.6.92-.89.91-.84,1.8-1.69,2.72-2.52.98-.9,1.97-1.79,2.96-2.68.76-.68,1.52-1.38,2.29-2.04.79-.65,1.64-1.18,2.67-1.38.16-.03.32-.07.48-.11h1.28c.22.05.43.09.65.14,1.6.37,2.85,1.25,3.77,2.62.43.64.6,1.37.64,2.12.03.59-.05,1.19-.03,1.78,0,.49-.11.96-.21,1.44-.07.31-.09.63-.09.95-.01.74,0,1.48,0,2.22v.41c.18-.08.29-.14.42-.18.59-.19,1.08-.54,1.56-.91.79-.62,1.71-.91,2.72-.91.3,0,.59,0,.89-.02.7-.02,1.36.12,2.03.3,1.01.27,1.84.79,2.59,1.5.69.67,1.41,1.32,2.09,2,1.95,1.98,4.15,3.62,6.57,4.98,1.96,1.11,3.92,2.24,5.91,3.31,2.84,1.51,5.81,2.71,8.84,3.79,5.96,2.14,11.99,4.05,18.12,5.62,3.04.78,6.09,1.46,9.19,1.97,1.84.3,3.68.59,5.53.83,1.51.19,3.02.32,4.53.46,3.37.3,6.75.4,10.13.37,1.51-.01,3.02-.05,4.54-.11,1.3-.06,2.61-.15,3.91-.26,1.48-.13,2.96-.27,4.44-.45,1.48-.19,2.97-.39,4.44-.65,2.16-.38,4.32-.79,6.47-1.25,6.97-1.5,13.79-3.47,20.44-6.02,6.22-2.38,12.32-5.02,18.22-8.13,2.46-1.3,4.88-2.66,7.15-4.29.6-.43,1.16-.91,1.73-1.37.19-.16.38-.33.54-.52.81-1.03,1.92-1.61,3.07-2.13.79-.36,1.63-.54,2.5-.47.73.06,1.4.27,1.95.76.03.03.06.05.09.06.51.28,1.04.5,1.62.7.05-.38-.04-.71-.09-1.04-.21-1.4-.4-2.8-.66-4.19-.42-2.32,1.2-4.68,3.52-5.2.38-.09.78-.12,1.16-.18.04,0,.09-.03.13-.05h1.07c.36.05.73.09,1.09.15.59.08,1.18.18,1.7.48.84.48,1.69.93,2.51,1.44,1.71,1.06,3.25,2.35,4.79,3.64,1.39,1.17,2.78,2.34,4.26,3.41,1.21.88,2.5,1.64,3.93,2.12.48.16.95.38,1.43.56.36.13.72.26,1.08.35.81.21,1.62.38,2.42.6.98.27,1.97.31,2.97.14.72-.12,1.43-.25,2.15-.33.59-.06,1.15-.16,1.7-.35.3-.1.61-.2.91-.3.6-.2,1.12-.52,1.55-.98.22-.23.44-.47.65-.72.99-1.24,1.96-2.48,2.95-3.71.08-.1.17-.19.26-.28v.14Zm-215.29,11.45v.42c-.03,1.13-.06,2.26-.09,3.39-.04,1.74-.09,3.48-.13,5.21,0,.14.02.28.03.43.04.35.1.71.12,1.06.04.59.05,1.19.07,1.78,0,.12,0,.25.07.34.32.49.71.94,1.28,1.16,1.12.44,2.28.75,3.5.73,1.2-.02,2.4-.05,3.6-.09.93-.03,1.86.03,2.77.22,1.28.26,2.47.76,3.59,1.42,1.03.6,2.01,1.27,3.05,1.85,1.7.95,3.42,1.87,5.16,2.76,4.53,2.32,9.06,4.62,13.6,6.93.65.33,1.28.69,1.95.97,3.79,1.58,7.65,2.97,11.58,4.18,3.6,1.11,7.23,2.08,10.91,2.9,1.93.43,3.88.8,5.82,1.17,1.18.23,2.36.42,3.54.62.88.15,1.76.26,2.64.39.78.1,1.55.21,2.33.31.71.09,1.41.18,2.12.25.82.09,1.63.16,2.45.24.98.09,1.96.19,2.95.26.95.07,1.9.12,2.85.16,1.44.07,2.9.17,4.35.18,3.26.04,6.52.08,9.78-.12,1.53-.09,3.06-.18,4.59-.29,1.25-.09,2.49-.22,3.73-.35,1.39-.16,2.78-.31,4.17-.53,1.86-.29,3.73-.62,5.58-.98,2.97-.57,5.92-1.27,8.8-2.21,4.76-1.55,9.51-3.11,14.26-4.74,5.65-1.94,11.2-4.12,16.66-6.57,5.63-2.54,11.11-5.37,16.28-8.76.13-.08.29-.13.43-.15.39-.06.77-.1,1.17-.16,1.15-.16,2.31-.24,3.48-.2.28,0,.55.06.82.09.55.06,1.11.17,1.66.19.5.02,1-.02,1.5-.07.61-.07,1.21-.21,1.79-.45.22-.09.3-.21.3-.45,0-4.85,0-9.71,0-14.57,0-.1-.01-.21-.02-.32-.11,0-.2,0-.27,0-.44,0-.89.01-1.32-.04-1.18-.14-2.34-.4-3.48-.73-2.65-.76-5.22-1.77-7.75-2.86-.59-.25-1.12-.6-1.65-.96-.19-.14-.39-.24-.62-.23-.25,0-.51,0-.74.07-1.06.32-2.02.81-2.77,1.66-.19.22-.41.43-.63.63-.85.8-1.78,1.49-2.75,2.15-2.26,1.54-4.64,2.89-7.08,4.16-5.34,2.79-10.85,5.23-16.47,7.42-4.3,1.68-8.66,3.21-13.12,4.45-3.83,1.07-7.69,2.03-11.59,2.81-2,.4-4.01.75-6.03,1.07-1.55.25-3.11.43-4.66.6-1.45.16-2.91.31-4.36.4-1.52.11-3.05.2-4.56.21-2.51.02-5.02,0-7.53-.05-1.36-.02-2.73-.12-4.09-.21-1.34-.09-2.68-.22-4.01-.36-1.25-.13-2.51-.26-3.75-.44-1.67-.25-3.35-.54-5.02-.84-2.78-.49-5.53-1.12-8.27-1.82-6.21-1.6-12.3-3.53-18.33-5.7-3.06-1.1-6.06-2.32-8.93-3.85-1.74-.93-3.45-1.91-5.17-2.89-1.11-.64-2.22-1.3-3.29-2-1.6-1.06-3.07-2.29-4.43-3.65-.87-.86-1.78-1.69-2.67-2.52-.15-.14-.32-.28-.5-.34-.41-.15-.83-.33-1.26-.37-.63-.07-1.27-.05-1.91-.03-.43.01-.8.21-1.14.48-.3.25-.6.5-.92.73-.15.1-.25.21-.19.4-.05.03-.08.05-.1.06-.29.13-.56.26-.85.38-2.81,1.21-5.65,2.32-8.61,3.07-1.3.33-2.62.57-3.98.53-.05,0-.11.01-.23.02Zm175.43-12.59c.29.14.52.27.77.35.7.24,1.41.48,2.13.7,1.57.49,3.16.95,4.67,1.63,1.1.5,2.15,1.08,3.05,1.89.88.79,1.52,1.73,1.81,2.89.2.82.2,1.62-.25,2.38-.06.11-.08.27-.08.41v8.99c.11.03.19.06.27.08.33.05.66.09.98.14,1.97.3,3.89.79,5.76,1.43.72.25,1.44.51,2.17.7.85.22,1.71.38,2.56.56.9.2,1.81.28,2.73.16.8-.1,1.58-.33,2.34-.6,1.09-.38,2.18-.75,3.27-1.09.74-.22,1.41-.56,2.03-1.01.4-.29.71-.65.97-1.09-.07-.01-.1-.03-.13-.02-.07,0-.14.02-.21.04-1.35.28-2.7.36-4.07.1-1.54-.29-2.76-1.1-3.84-2.19.02-.04.02-.08.05-.1.57-.75,1.14-1.49,1.89-2.08.56-.45,1.13-.88,1.7-1.29.75-.55,1.52-1.07,2.25-1.63.76-.57,1.43-1.22,1.99-2,.05-.07.09-.15.18-.28-.31.09-.55.18-.8.25-.58.14-1.15.29-1.74.4-.63.11-1.28.16-1.9.27-.73.12-1.46.24-2.19.21-.87-.04-1.73-.14-2.57-.4-.72-.22-1.48-.36-2.21-.54-1.09-.27-2.09-.78-3.14-1.15-1.13-.4-2.18-.95-3.16-1.64-.59-.42-1.2-.82-1.76-1.27-1.36-1.08-2.7-2.19-4.04-3.3-1.89-1.58-3.85-3.07-6.06-4.19-.17-.09-.34-.2-.51-.24-.97-.21-1.95-.33-2.94-.15-.99.18-1.67.72-1.93,1.71-.07.3-.04.63-.06.98Zm-178.11,20.77c0-.07.01-.09.01-.12.09-3.06.16-6.11.24-9.17,0-.11-.01-.24-.07-.34-.39-.75-.39-1.53-.19-2.32.32-1.28,1.07-2.27,2.07-3.09.89-.74,1.92-1.28,2.97-1.75,1.33-.58,2.71-1,4.1-1.43.88-.28,1.76-.58,2.64-.86.25-.08.37-.24.37-.5,0-.51.02-1.02,0-1.53-.01-.23-.08-.47-.18-.68-.65-1.26-2.36-2.02-3.74-1.7-.48.11-.9.33-1.27.63-.75.62-1.48,1.26-2.21,1.91-.58.51-1.11,1.08-1.69,1.59-1.7,1.49-3.4,2.97-5,4.58-1.01,1.02-2.16,1.86-3.45,2.51-.47.23-.92.52-1.32.83-.71.54-1.46.98-2.29,1.3-.44.17-.88.35-1.31.54-.98.43-1.97.77-3.03.95-.57.1-1.14.21-1.72.15-.44-.04-.88-.08-1.32-.11-.77-.06-1.55-.16-2.3-.4-.61-.2-1.22-.39-1.9-.61.13.14.19.23.27.32.96.96,2.08,1.67,3.26,2.28.78.4,1.58.78,2.35,1.19.51.27,1.03.49,1.58.63.68.17,1.32.41,1.87.84.47.37.94.74,1.4,1.11.06.04.09.1.14.16-.05.04-.08.08-.12.1-1.23.63-2.45,1.27-3.79,1.63-1.51.41-3.01.78-4.59.73-1-.03-1.99-.08-2.99-.12-.02,0-.06.02-.11.03.86.74,1.75,1.36,2.74,1.85,1.94.96,4.04,1.37,6.17,1.56.88.08,1.76.08,2.64.08.95,0,1.89-.14,2.83-.31,1.54-.29,3.01-.78,4.44-1.39.83-.35,1.66-.71,2.49-1.07Zm2.36-10.78c.27.05.53.11.79.13.75.04,1.49-.09,2.22-.24,1.59-.33,3.14-.82,4.66-1.37.61-.22,1.23-.45,1.83-.68-.03-1.18-.07-2.33-.1-3.51-.37.12-.73.23-1.09.34-1.45.44-2.91.86-4.32,1.43-.95.4-1.89.85-2.7,1.5-.5.4-.92.86-1.17,1.47-.11.27-.21.55-.14.94Zm176.63-3.44c.07.04.11.06.16.08,2.14.82,4.3,1.57,6.57,1.97.68.12,1.36.19,2.06.09.39-.06.48-.16.4-.54-.09-.44-.28-.83-.56-1.18-.39-.51-.88-.9-1.41-1.24-.85-.54-1.75-.96-2.7-1.28-1.55-.52-3.12-1.01-4.67-1.5-.05-.02-.11-.01-.2-.02.15,1.22.42,2.4.36,3.62Z" style="fill: #333b8c; fill-rule: evenodd;"/>
      <path d="m30.65,147.1c.11-.01.18-.02.23-.02,1.36.05,2.68-.2,3.98-.53,2.97-.75,5.81-1.86,8.61-3.07.29-.12.56-.25.85-.38.03-.02.06-.03.1-.06-.07-.18.04-.29.19-.4.31-.23.62-.48.92-.73.33-.27.71-.47,1.14-.48.64-.02,1.28-.03,1.91.03.43.04.85.22,1.26.37.18.07.35.21.5.34.89.83,1.8,1.66,2.67,2.52,1.36,1.36,2.83,2.59,4.43,3.65,1.07.7,2.18,1.36,3.29,2,1.71.98,3.43,1.96,5.17,2.89,2.87,1.52,5.88,2.74,8.93,3.85,6.03,2.17,12.12,4.1,18.33,5.7,2.74.7,5.49,1.33,8.27,1.82,1.67.29,3.34.58,5.02.84,1.24.18,2.5.32,3.75.44,1.34.14,2.67.26,4.01.36,1.36.09,2.73.19,4.09.21,2.51.05,5.02.07,7.53.05,1.52-.02,3.05-.11,4.56-.21,1.46-.1,2.91-.24,4.36-.4,1.55-.17,3.11-.35,4.66-.6,2.01-.32,4.02-.67,6.03-1.07,3.9-.78,7.76-1.74,11.59-2.81,4.46-1.24,8.81-2.77,13.12-4.45,5.62-2.2,11.12-4.63,16.47-7.42,2.43-1.27,4.81-2.62,7.08-4.16.97-.66,1.9-1.35,2.75-2.15.22-.2.44-.41.63-.63.75-.85,1.71-1.34,2.77-1.66.24-.07.5-.07.74-.07.24,0,.43.09.62.23.52.36,1.05.71,1.65.96,2.53,1.09,5.09,2.1,7.75,2.86,1.14.33,2.3.6,3.48.73.43.05.87.03,1.32.04.08,0,.16,0,.27,0,.01.12.02.22.02.32,0,4.86,0,9.71,0,14.57,0,.24-.08.37-.3.45-.58.24-1.17.38-1.79.45-.5.06-1,.1-1.5.07-.55-.02-1.11-.13-1.66-.19-.27-.03-.54-.08-.82-.09-1.17-.04-2.32.05-3.48.2-.39.05-.78.09-1.17.16-.14.02-.3.08-.43.15-5.17,3.39-10.65,6.22-16.28,8.76-5.46,2.45-11.01,4.62-16.66,6.57-4.75,1.63-9.5,3.19-14.26,4.74-2.88.93-5.83,1.64-8.8,2.21-1.85.35-3.71.68-5.58.98-1.38.22-2.78.37-4.17.53-1.24.14-2.48.26-3.73.35-1.53.12-3.06.2-4.59.29-3.26.19-6.52.16-9.78.12-1.45-.02-2.9-.11-4.35-.18-.95-.05-1.9-.1-2.85-.16-.98-.07-1.96-.17-2.95-.26-.82-.08-1.63-.15-2.45-.24-.71-.08-1.41-.16-2.12-.25-.78-.1-1.55-.2-2.33-.31-.88-.13-1.76-.24-2.64-.39-1.18-.19-2.36-.39-3.54-.62-1.95-.37-3.89-.75-5.82-1.17-3.68-.82-7.31-1.78-10.91-2.9-3.93-1.22-7.79-2.6-11.58-4.18-.67-.28-1.3-.64-1.95-.97-4.53-2.31-9.07-4.61-13.6-6.93-1.73-.89-3.45-1.81-5.16-2.76-1.04-.58-2.02-1.25-3.05-1.85-1.12-.66-2.31-1.16-3.59-1.42-.91-.18-1.84-.25-2.77-.22-1.2.04-2.4.08-3.6.09-1.22.02-2.38-.29-3.5-.73-.57-.22-.95-.67-1.28-1.16-.07-.09-.07-.23-.07-.34-.03-.59-.03-1.19-.07-1.78-.02-.35-.08-.71-.12-1.06-.02-.14-.03-.29-.03-.43.04-1.74.09-3.47.13-5.21.03-1.13.07-2.26.09-3.39v-.42Z" style="fill: #f9da00; fill-rule: evenodd;"/>
      <path d="m206.07,134.5c.02-.35-.01-.68.06-.98.26-.99.94-1.54,1.93-1.71.99-.18,1.97-.06,2.94.15.18.04.34.15.51.24,2.21,1.13,4.17,2.61,6.06,4.19,1.34,1.11,2.68,2.22,4.04,3.3.56.45,1.17.86,1.76,1.27.98.69,2.03,1.24,3.16,1.64,1.05.37,2.05.88,3.14,1.15.74.18,1.49.32,2.21.54.84.26,1.7.36,2.57.4.73.03,1.46-.09,2.19-.21.63-.11,1.27-.16,1.9-.27.58-.11,1.16-.25,1.74-.4.25-.06.49-.15.8-.25-.08.13-.13.21-.18.28-.55.78-1.23,1.43-1.99,2-.74.56-1.51,1.08-2.25,1.63-.57.42-1.14.85-1.7,1.29-.74.59-1.32,1.34-1.89,2.08-.02.03-.03.07-.05.1,1.08,1.09,2.3,1.9,3.84,2.19,1.37.26,2.72.18,4.07-.1.07-.02.14-.04.21-.04.04,0,.07.01.13.02-.26.44-.57.8-.97,1.09-.62.45-1.29.79-2.03,1.01-1.09.33-2.18.71-3.27,1.09-.77.26-1.54.49-2.34.6-.92.12-1.83.04-2.73-.16-.86-.18-1.72-.34-2.56-.56-.73-.19-1.45-.45-2.17-.7-1.88-.64-3.8-1.13-5.76-1.43-.33-.05-.66-.09-.98-.14-.08-.01-.15-.04-.27-.08v-8.99c0-.14.02-.3.08-.41.44-.76.45-1.57.25-2.38-.28-1.16-.93-2.1-1.81-2.89-.9-.81-1.95-1.4-3.05-1.89-1.51-.68-3.1-1.14-4.67-1.63-.71-.22-1.43-.46-2.13-.7-.25-.09-.48-.22-.77-.35Z" style="fill: #f9da00; fill-rule: evenodd;"/>
      <path d="m27.96,155.27c-.83.36-1.66.72-2.49,1.07-1.44.62-2.91,1.1-4.44,1.39-.94.17-1.88.31-2.83.31-.88,0-1.76,0-2.64-.08-2.13-.2-4.23-.6-6.17-1.56-.99-.49-1.88-1.11-2.74-1.85.05-.02.08-.04.11-.03,1,.04,2,.09,2.99.12,1.58.05,3.08-.32,4.59-.73,1.34-.37,2.56-1,3.79-1.63.04-.02.07-.06.12-.1-.05-.06-.08-.12-.14-.16-.46-.37-.93-.74-1.4-1.11-.55-.43-1.2-.67-1.87-.84-.55-.14-1.08-.36-1.58-.63-.77-.41-1.57-.79-2.35-1.19-1.19-.61-2.31-1.32-3.26-2.28-.08-.08-.14-.17-.27-.32.68.22,1.29.41,1.9.61.75.24,1.53.34,2.3.4.44.03.88.06,1.32.11.59.06,1.15-.05,1.72-.15,1.06-.18,2.05-.52,3.03-.95.43-.19.87-.37,1.31-.54.83-.31,1.58-.76,2.29-1.3.41-.31.86-.6,1.32-.83,1.29-.65,2.44-1.49,3.45-2.51,1.59-1.61,3.29-3.1,5-4.58.58-.51,1.11-1.08,1.69-1.59.73-.65,1.46-1.29,2.21-1.91.37-.3.79-.52,1.27-.63,1.38-.32,3.09.45,3.74,1.7.1.21.17.45.18.68.02.51,0,1.03,0,1.53,0,.26-.11.42-.37.5-.88.28-1.76.58-2.64.86-1.39.43-2.78.85-4.1,1.43-1.05.46-2.08,1-2.97,1.75-1,.82-1.75,1.81-2.07,3.09-.2.79-.21,1.57.19,2.32.05.1.07.23.07.34-.08,3.06-.15,6.11-.24,9.17,0,.03,0,.05-.01.12Z" style="fill: #f9da00; fill-rule: evenodd;"/>
      <path d="m30.33,144.49c-.07-.39.03-.67.14-.94.24-.6.67-1.06,1.17-1.47.81-.65,1.75-1.11,2.7-1.5,1.41-.58,2.87-1,4.32-1.43.36-.11.72-.22,1.09-.34.03,1.19.07,2.33.1,3.51-.61.23-1.22.46-1.83.68-1.52.55-3.07,1.04-4.66,1.37-.73.15-1.47.28-2.22.24-.26-.01-.53-.08-.79-.13Z" style="fill: #f9da00; fill-rule: evenodd;"/>
      <path d="m206.95,141.05c.05-1.23-.21-2.4-.36-3.62.09,0,.14,0,.2.02,1.55.5,3.13.98,4.67,1.5.94.32,1.85.74,2.7,1.28.53.34,1.03.73,1.41,1.24.28.35.48.74.56,1.18.08.38,0,.48-.4.54-.69.1-1.38.03-2.06-.09-2.27-.4-4.43-1.15-6.57-1.97-.05-.02-.09-.05-.16-.08Z" style="fill: #f9da00; fill-rule: evenodd;"/>
    </g>
    <path d="m148.16,72.96c-.7-.73,1.49-1.25,2.45-1.79.92-.51,1.67-1.2,2.02-2.24.43-1.27-1.67-2.59-2.91-3.13-1.46-.64-4.98-1.67-7.15-2.24-10.12-2.65-25.91-2.13-36.01.67-3.76,1.05-9.21,2.44-9.17,5.14.04,3.03,7.12,4.24,7.6,5.14,1.2,1.27-3.88-.08-5.61-.9-2.35-1.12-5.22-2.33-4.68-5.58.27-1.67,2.44-2.94,4.25-3.8,2.09-.99,4.66-1.71,7.61-2.46,3.57-.92,7.53-1.78,10.96-2.24,1.18-.16,2.34-.26,3.68-.33,1.05-.06,4.7-.18,6.97-.07,7.16.35,13.44,1.45,19.31,3.3,3.1.98,7.9,2.79,8.05,5.59.07,1.45-1.22,2.78-2.68,3.81-.66.46-2.57,1.85-4.69,1.12Z" style="fill: #f9da00; fill-rule: evenodd;"/>
    <g>
      <path d="m101.65,106.96c.38-.09.42.17.45.44-1.58,2.58-5.97,3.09-9.61,4.03-.86.22-1.53.4-2.33.53-1.2.2-2.28.27-3.67.4-1.12.1-2.28.3-4.29.19-2.99-.15-3.81-.16-5.82-.22-3.09-.1-7.49.71-10.28,2.68-1.44,1.02-1.54,2.99-3.8,3.35.34-.92.94-1.59.9-2.9,3.99-4.87,9.42-7.31,18.78-7.15,1.71.03,3.48.5,5.14.67,4.22.42,5.74-.04,8.21-.22.53-.04,1.34-.19,1.54-.21.53-.07,1.15-.31,1.65-.45,1.95-.55,2.13-.6,3.13-1.13Z" style="fill: #f9da00; fill-rule: evenodd;"/>
      <g>
        <path d="m149.28,90.41c-1.43-.51-2.4-1.48-2.91-2.91,1.89-.8,2.34,1.65,2.91,2.91Z" style="fill: #f9da00; fill-rule: evenodd;"/>
        <path d="m162.53,112.97c1.66,2.76,2.57,4.95,3.29,7.4.18,2.51,2.1,3.27,1.79,6.26-5.47-1.31-8.22-5.35-9.17-11.18-.29-1.12.69-.95.67-1.79-1.45-2.26-3.32-3.97-5.37-5.82-.65-.58-1.08-1.71-2.24-1.34-.64,1.13.76,1.99,1.34,2.68.67.81,1.22,1.74,2.02,2.24.76,1.85,1.4,3.81,2.46,5.36.57,2.61,1.44,5.28,3.13,6.93.81.8,2.26,1.26,2.9,2.46.44.8.34,1.94.67,2.91.57,1.66,1.73,3.2,2.02,5.14-.88.5-1.62-.24-2.46.22-.09,3.22,2.09,4.17,2.46,6.93-3.51.16-5.62-1.28-8.95-.45-1.72.43-4.07,1.35-6.04,2.24-1.86.83-4.02,2.69-5.36,2.68-1.36,0-2.35-1.47-3.8-2.01-4.71-1.76-10.51-.04-14.32,1.56-2.07.88-4.18,2.69-6.92,2.46-1.16-1.94,1.28-3.45,1.56-5.36-7.77-.69-13.67,2.42-18.56,5.36-1.2,1.31-3.09,2.95-5.59,2.24.16-1.88,2.07-2.51,3.13-3.58.25-.25.37-.78.67-1.12.52-.6.85-1.02,1.56-1.79.78-.85,1.49-2.01,2.24-3.36-.42-.38-1.36-.65-2.01-.22-.4.26-.53.11-1.34.45-1.52.64-3.03,1.86-4.47,2.9-.73.53-1.55,1-2.24,1.57-1.25,1.02-2.01,1.7-3.57,2.68-1.31.82-3.07,2.63-4.92,2.23-.25-1.49.41-2.99.9-4.47.89-2.69,1.29-5.52,2.01-8.5,1.09-4.51,3.28-8.38,6.26-11.18,2.96-1.26,7.14-1.11,10.74-.89.13,1.25-1.79,2.01-2.91,2.9-.54.43-1.21.86-1.79,1.35-1.29,1.08-2.36,2.08-3.58,3.35-.75,1.81-2.02,3.24-3.13,4.7-1.1,1.44-2.57,2.55-3.35,4.25,1.55.63,3.04-.96,4.24-1.79,4.02-2.75,7.3-6.51,10.29-10.51,1.55-.92,2.74-2.08,4.25-3.13,2.88-2.02,6.82-2.68,10.06-4.47,1.49-.83,2.71-2.41,4.47-2.24-.94,5.28-5.02,8.44-8.73,11.4-3.07,2.46-5.69,5.52-7.15,10.07,1.1.4,1.58-1,2.01-1.56,2.91-3.83,7.23-7.17,11.41-10.06-.99,3.93-4.71,5.12-4.24,10.51,1.36-1.18,2.33-2.95,3.35-4.47,1.04-1.55,1.84-3.22,3.13-4.47-.03-1.5,1.48-2.75,1.79-4.47.25-1.38-.19-2.96,0-4.25.31-2.18,1.42-3.42,2.24-4.92.09-1.79.34-4.1.45-6.48.07-1.54.9-3.54-.67-4.02-1.09.64-.79,2.05-1.12,2.91-.24.63-.79,1.59-1.12,2.24-.83,1.62-1.67,2.45-2.91,3.8-.51.56-1.02,1.36-1.57,1.79-.61.49-1.72.75-2.46,1.34-.78.61-1.58,1.43-2.91,2.01-1.64.72-2.57.56-4.69,1.12-5.63,1.47-14.89-.53-19.9,3.13-.83.61-1.43,1.93-2.46,2.23-2.92-.56-1.06-4.93-2.01-8.94-.47-1.95-1.92-2.76-.68-4.25,3.95-.95,10.98.59,14.76-1.12,1.36-.62,1.7-.4,2.68-1.79.65-.91,1.57-2.78,1.12-4.92-.24-1.12-1.71-2.93-2.68-3.36-1.79-.78-5.37-1.25-8.28-.89-1.21.14-3.58.66-4.92,1.79-1.45,1.21-3.07,3.77-4.25,3.8-1.73.05-3.46-3.23-4.03-4.92-2.16-1.92-5.14-4-2.01-6.71.73-.64,2.53-1.8,3.57-2.46,5.19-3.3,13.09-4.9,15.65-10.51,3.54-2.58,9.46-2.77,12.08-6.26.88-2.74-.95-4.52-.9-7.16,1.24-.93,3.5.44,4.47.45,2.33-.98,2.68-5.03,6.04-4.25-.08,1.14-1.02,1.88-.23,2.68,1.87-.36,1.96-2.51,4.24-2.46.44.52.52,1.42.45,2.46.24.73,1.23.71,1.34,1.56,4.28,1.17,6.8-1.15,9.62-2.68,1.32,3.82,4.12,6.15,9.62,5.81.25.27.25.79.22,1.34,1.31.62,2.41,1.46,3.57,2.24,3,2.44,5.35,7.61,6.94,11.85.25.66.65,1.14.9,1.79.6,1.64.63,2.74,1.57,4.47,1.26,2.35,4.07,4.22,1.79,6.26.94,3.3,3.04,5.46,4.47,8.28-1.4.21-1.7-.69-2.69-.89-1.24-3.08-2.59-6.05-6.26-6.71-.51.68.49,1.51,1.66,2.06m-1.66-6.76c.44-1.45-.74-2.35-1.34-3.58-1.06-2.18-1.69-5.26-3.13-6.48-.38-.32-.98-.46-1.35-.67-1.39-2.48-2.7-5.06-4.92-6.71-.3-.44-.21-1.28-.44-1.79-1.66-.6-4.2.15-5.59-.22-.91-1.03-2-1.88-2.69-3.13-2.17-1.31-5.77-.96-8.05,0-1.42,1.12-2.42,2.64-4.25,3.35-1.89-.65.09-3.73-1.12-4.25-1.3.41-2.27,1.15-4.25.89-.39-1.1-.88-2.11-2.46-2.01.2,2.29.53,4.23,1.12,5.59,1.78.14,1.89-1.39,3.57-1.34.37,1.42.57,3.01,1.57,3.8,1.46.03,1.98,1,3.13,1.34,1.23-.48,2.38-1.05,3.57-1.56.19.31,1.31.17,2.01.45,2.78,1.09,3.68,3.24,4.48,6.04-.58,2.04-.53,5.37-2.47,5.37-2.02,0-2.7-5.97-6.26-5.14-1.17,2.07,1.28,3.71,2.46,5.14,1.29,1.56,2.82,3.19,3.13,5.14.24,1.54.41,5.54-.89,5.81.73-4.78-3.05-6.71-6.93-7.6.38,1.4,2.1,1.68,2.91,2.68.1.13.17.58.22.67.37.59.91,1.16.9,2.01-.03.73-1.33.16-1.12,1.12.94,1.44,2.07,2.69,2.9,4.25.15,1.49.41,2.87,1.34,3.58.91-.29.76-1.51,1.12-2.24.38-.76.82-1.8,1.57-2.01.93,2.92.99,6.6.22,9.62-.09.35-.54.55-.67.89-.81,2.15-.71,5.26-2.69,6.04-.38-.51-.53-1.25-.44-2.23-.85-.57-.08-2.75-1.35-2.91-.61,1.07.01,2.06,0,3.13-.05,6.17-1.94,11.32-3.35,16.77,1.26-.54,1.63-2.05,2.24-3.13,2.19-3.9,4.97-7.67,6.71-11.63.05-2.18,1.57-3.65,1.79-5.59.15-1.35.36-2.14.44-2.91.17-1.49-.34-2.49-.44-3.35-.08-.64.15-1.31,0-2.02-.55-2.55-2.82-4.77-3.13-7.83-.11-1.06.09-1.93,0-2.91-.09-.95-1.38-2.66.45-3.35,2.35,1.74,2.76,5.43,4.25,8.05,0,2.81,1.66,7.54,1.34,11.41-.1,1.24-1.25,2.5,0,3.35.99-.87.76-2.96,2.01-3.58.89,4.81-2.32,9.62-4.03,13.86-1.38,1.84-2.62,3.71-3.8,5.37-1.6,2.24-3.58,4.1-4.03,7.15.97,0,1.92-1.17,2.68-2.01.83-.91,1.7-1.92,2.24-2.9,1.36-1.1,2.75-2.17,3.35-4.03,2.65-1.96,3.79-5.45,5.81-8.05-.13-1.4.49-2.05,1.12-2.69-.09,6.39-2.64,12.03-4.25,18.11,2.25-.95,2.56-3.85,4.48-5.14,2.38,1.87,2.96,6.71,6.7,6.49-.84-2.53-2.64-4.64-3.58-7.38-1.49-4.37-1.66-9.26-1.79-15.2-.04-.29-.02-.23-.22-.45-2.25-.8-1.96-4.15-3.13-6.26-.41-.74-1.19-1.11-1.57-1.79-.75-1.35-.66-3.61-.45-5.37,3.19,2.75,4.78,8.12,5.59,12.52.82.63.46,1.6.89,2.46.85,1.69,2.45,2.65,2.46,4.7,0,2.05.04,2.7.45,4.25.25.93.37,2.13.67,2.9.12.32.53.38.67.67.54,1.15.75,2.28,1.57,3.35.75.99,1.59,1.92,2.68,2.46.27-1.24-1.22-2.43-2.01-3.8-.29-.48-.18-1-.45-1.57-.3-.6-.73-.75-.9-1.34-.11-.37.1-1.09,0-1.57-.24-1.17-1.06-2.57.45-3.13,1.03.31,1.38,1.3,2.68,1.34-.2-1.57,1.4-1.28,2.68-1.79-.22-1.12-1.58-1.1-2.68-1.34-1.81-1.53-3.7-1.82-4.91-3.8-1.35-2.18-1.75-6.75-2.24-9.39-.5-2.73-.84-5.7-1.34-8.27-2.11-3.26-2.7-8.03-7.61-8.5-.07,1.71,1.55,1.74,2.24,2.69.91,1.8,2.74,4.58,1.57,6.48-1.07-.57-2.06-1.22-3.35-1.57-1.47-1.97-2.26-4.46-3.8-6.26-.61-.72-1.75-.9-1.79-2.02,2.8-3.28,2.91-8.73.44-12.3-1.15-.56-2.45-.98-3.35-1.79-1.12,0-2.04-.2-2.24-1.12,1.07-1.61,4.06-1.1,6.04-.67,1.31.93,1.65,2.82,3.14,3.58.59-.22.27-1.36,1.11-1.34,3.02,1.15,5.49,3.39,5.15,6.71-1.68-1.68-3.55-3.16-6.49-3.58-.29,3.03,3.97.98,4.02,4.03-.2.55-1.24.24-1.12,1.12-.04.94,1.11.69.9,1.79,2.96,1.83,4.97,4.77,6.93,7.83.5.76,1.05,1.74,1.35,2.46.74,1.87-.01,4.12,1.79,5.37.14-4.17-.56-7.5-1.79-10.29.74-.44,1.21-2.12.89-2.91,1.56,1.65,1.97,4.45,4.03,5.59Zm-56.57-11.85c-.58.39-.47,1.48-.67,2.24-.82,1.49-2.49,2.14-2.23,4.7,1.45.16,2.36-1.34,3.8-1.57,1.2-.19,2.46.37,3.58.23,2.04-.27,2.61-1.65,4.03-2.46.86-.5,1.94.13,2.01-1.12-1.49-2.54-7.54-1.69-10.51-2.01Zm-15.43,10.73h-.44c-.26,2.18-2.31,3.58-1.34,6.26.8.17,1.2.88,2.01.45,1.31-1.28,3.35-6.33-.22-6.71Z" style="fill: #f9da00; fill-rule: evenodd;"/>
      </g>
    </g>
    <path d="m118.71,46.3c-2.38,0-4.31,1.93-4.31,4.32s1.93,4.31,4.31,4.31,4.32-1.93,4.32-4.31-1.93-4.32-4.32-4.32Z" style="fill: none;"/>
    <path d="m107.4,48.25c-2.39,0-4.31,1.93-4.31,4.31s1.93,4.31,4.31,4.31,4.31-1.93,4.31-4.31-1.93-4.31-4.31-4.31Z" style="fill: none;"/>
    <path d="m130.69,46.3c-2.38,0-4.32,1.93-4.32,4.32s1.93,4.31,4.32,4.31,4.32-1.93,4.32-4.31-1.93-4.32-4.32-4.32Z" style="fill: none;"/>
    <path d="m96.44,51.55c-2.39,0-4.31,1.93-4.31,4.32s1.93,4.31,4.31,4.31,4.31-1.93,4.31-4.31-1.93-4.32-4.31-4.32Z" style="fill: none;"/>
    <path d="m142.58,48.37c-2.39,0-4.31,1.93-4.31,4.31s1.93,4.31,4.31,4.31,4.31-1.93,4.31-4.31-1.93-4.31-4.31-4.31Z" style="fill: none;"/>
    <path d="m96.44,60.18c-2.39,0-4.31-1.93-4.31-4.31s1.93-4.32,4.31-4.32,4.31,1.93,4.31,4.32-1.93,4.31-4.31,4.31Z"/>
    <path d="m107.4,56.88c-2.39,0-4.31-1.93-4.31-4.31s1.93-4.31,4.31-4.31,4.31,1.93,4.31,4.31-1.93,4.31-4.31,4.31Z"/>
    <path d="m118.71,54.93c-2.38,0-4.31-1.93-4.31-4.31s1.93-4.32,4.31-4.32,4.32,1.93,4.32,4.32-1.93,4.31-4.32,4.31Z"/>
    <path d="m130.69,54.93c-2.38,0-4.32-1.93-4.32-4.31s1.93-4.32,4.32-4.32,4.32,1.93,4.32,4.32-1.93,4.31-4.32,4.31Z"/>
    <path d="m142.58,57c-2.39,0-4.31-1.93-4.31-4.31s1.93-4.31,4.31-4.31,4.31,1.93,4.31,4.31-1.93,4.31-4.31,4.31Z"/>
    <path d="m153.06,60.13c-2.38,0-4.31-1.93-4.31-4.32s1.93-4.31,4.31-4.31,4.32,1.93,4.32,4.31-1.93,4.32-4.32,4.32Z"/>
    <path d="m161.8,48.81c-3.47,1.65-7.8.28-9.17-2.68-.6-1.29-.7-2.52-.89-4.03-1.66,2.27-4.16,4.26-7.61,3.8-.25-.04-1.66-.13-2.68-.9-.86-.64-1.08-1.16-1.34-1.56-.68-1.06-1.14-2.44-1.34-3.35-.91,1.42-2.9,3.57-5.59,4.02-4.73.8-6.79-2.45-7.64-3.86-.5-1.05-.93-2.99-1.09-3.66-.1.97.05,2.07-1.11,4.17-1.59,2.21-3.43,4.17-7.82,3.58-.81-.25-1.38-.47-2.01-.89-1.08-.71-1.89-1.31-2.69-2.24-1.17,3.7-5.53,6.37-9.61,4.7-1.23-.5-2.28-1.06-3.58-2.01-.47,2.88-2.05,5.67-4.92,6.26-3.28.68-5.4-.94-7.6-2.24,1.81,4.64,2.42,6.38,3.72,9.12,1.35,2.86,2.64,5.42,4.33,8.32,1.25-.71,2.33-1.19,3.58-1.79,4.95-2.38,11.62-4,17.66-4.92,2.29-.34,3.68-.54,5.29-.68,5.78-.52,12.95-.15,17.74.68.66.12,1.81.26,2.47.4,4.1.84,5.04,1.29,7.81,2.09,3.84,1.1,5.77,2.26,8.5,4.5l8.72-19.29c-.73.92-1.9,1.87-3.13,2.46Zm-8.74,11.32c-2.38,0-4.31-1.93-4.31-4.32s1.93-4.31,4.31-4.31,4.32,1.93,4.32,4.31-1.93,4.32-4.32,4.32Z" style="fill: #f9da00;"/>
    <path d="m153.06,51.51c-2.38,0-4.31,1.93-4.31,4.31s1.93,4.32,4.31,4.32,4.32-1.93,4.32-4.32-1.93-4.31-4.32-4.31Z" style="fill: #303d8f;"/>
    <path d="m142.58,48.37c-2.39,0-4.31,1.93-4.31,4.31s1.93,4.31,4.31,4.31,4.31-1.93,4.31-4.31-1.93-4.31-4.31-4.31Z" style="fill: #303d8f;"/>
    <path d="m130.69,46.3c-2.38,0-4.32,1.93-4.32,4.32s1.93,4.31,4.32,4.31,4.32-1.93,4.32-4.31-1.93-4.32-4.32-4.32Z" style="fill: #303d8f;"/>
    <path d="m118.71,46.3c-2.38,0-4.31,1.93-4.31,4.32s1.93,4.31,4.31,4.31,4.32-1.93,4.32-4.31-1.93-4.32-4.32-4.32Z" style="fill: #303d8f;"/>
    <path d="m107.4,48.25c-2.39,0-4.31,1.93-4.31,4.31s1.93,4.31,4.31,4.31,4.31-1.93,4.31-4.31-1.93-4.31-4.31-4.31Z" style="fill: #303d8f;"/>
    <path d="m96.44,51.55c-2.39,0-4.31,1.93-4.31,4.32s1.93,4.31,4.31,4.31,4.31-1.93,4.31-4.31-1.93-4.32-4.31-4.32Z" style="fill: #303d8f;"/>
    <path d="m36.48,149.43l4.23,6.41v-6.47c0-.42.09-.74.27-.95.18-.21.42-.31.73-.31.32,0,.57.1.75.31.18.21.27.52.27.95v8.55c0,.96-.4,1.43-1.19,1.43-.2,0-.38-.03-.54-.08-.15-.05-.3-.15-.44-.27-.14-.13-.27-.27-.39-.44-.11-.17-.24-.33-.35-.51l-4.14-6.33v6.37c0,.41-.09.73-.28.94-.19.21-.44.32-.74.32s-.56-.11-.75-.32c-.19-.21-.28-.53-.28-.94v-8.39c0-.36.04-.64.11-.84.1-.22.25-.4.47-.54.22-.14.45-.21.7-.21.2,0,.37.03.51.1.14.06.27.15.37.26.11.11.21.25.33.42.11.17.22.35.34.54Z" style="fill: #333b8c;"/>
    <g>
      <path d="m53.43,150.87c.95.6,1.65,1.31,2.09,2.13.44.82.61,1.69.51,2.63-.1.94-.45,1.88-1.06,2.85-.45.71-.96,1.3-1.51,1.75-.56.46-1.17.78-1.83.96-.65.18-1.32.21-2.03.08-.7-.13-1.42-.42-2.13-.88-.73-.45-1.29-.98-1.72-1.57-.42-.59-.68-1.22-.8-1.88-.11-.66-.08-1.35.1-2.07.18-.72.49-1.42.92-2.11.45-.71.96-1.29,1.54-1.75.57-.46,1.18-.78,1.83-.95.65-.17,1.32-.19,2.01-.06.68.13,1.38.42,2.09.86Zm-.34,6.4c.42-.67.68-1.33.78-1.96.09-.63.02-1.2-.23-1.71-.24-.5-.62-.92-1.14-1.25-.38-.24-.76-.38-1.17-.44-.4-.06-.79-.03-1.2.1-.39.12-.79.35-1.18.68-.4.33-.76.76-1.08,1.28-.33.52-.56,1.04-.7,1.54-.13.5-.17.97-.1,1.4.06.43.21.81.43,1.15.23.33.53.62.9.85.47.3.99.46,1.54.47.55.01,1.1-.15,1.65-.5.55-.35,1.05-.89,1.51-1.61Z" style="fill: #333b8c;"/>
      <path d="m61.28,157.39l.17,7.68,3.45-5.47c.23-.35.48-.57.74-.65.26-.08.53-.04.78.12.27.17.43.4.47.67.04.28-.05.59-.27.95l-4.57,7.23c-.51.81-1.1,1-1.77.58-.16-.11-.3-.23-.4-.36-.11-.13-.19-.29-.24-.47-.05-.18-.08-.37-.09-.57-.01-.2-.02-.41-.04-.62l-.1-7.56-3.4,5.39c-.22.35-.47.57-.74.64-.28.08-.54.03-.8-.13-.26-.17-.42-.39-.46-.67-.05-.28.04-.6.26-.95l4.48-7.09c.19-.3.37-.52.55-.65.19-.14.42-.21.68-.21.26,0,.49.06.7.2.17.1.3.22.38.35.08.13.15.27.18.42.03.15.04.33.05.53,0,.21,0,.42,0,.64Z" style="fill: #333b8c;"/>
    </g>
    <g>
      <path d="m78.04,171.44c-.2.63-.54,1.14-1.03,1.53-.48.39-1.08.63-1.8.71-.71.08-1.49-.02-2.35-.29-1.02-.33-1.79-.8-2.34-1.4-.38-.43-.64-.92-.78-1.48-.15-.56-.15-1.06,0-1.5.08-.25.24-.44.48-.57.24-.13.49-.14.76-.06.22.07.38.2.49.4.1.19.16.44.19.75.03.37.07.69.16.96.08.27.24.52.47.76.24.23.57.42,1.03.57.62.2,1.17.22,1.65.06.48-.17.79-.46.93-.89.11-.34.1-.66-.04-.94-.14-.28-.36-.53-.65-.75-.3-.22-.71-.49-1.22-.79-.69-.42-1.24-.82-1.67-1.21-.42-.4-.72-.84-.88-1.34-.16-.5-.15-1.04.04-1.64.18-.57.51-1.02.96-1.37.45-.34,1.02-.53,1.68-.58.66-.05,1.39.06,2.19.31.64.21,1.15.46,1.57.77.41.31.73.64.95,1,.22.36.36.71.4,1.04.05.34.03.63-.06.91-.08.25-.24.45-.48.59-.24.14-.49.17-.75.09-.25-.08-.4-.2-.49-.36-.09-.16-.16-.4-.22-.72-.07-.45-.19-.83-.38-1.13-.19-.31-.57-.55-1.16-.74-.54-.18-1.02-.2-1.42-.07-.41.13-.67.36-.78.7-.07.21-.07.4,0,.59.06.19.18.36.34.54.16.17.33.32.51.45.18.13.48.33.91.59.54.33,1.02.65,1.44.97.42.32.76.65,1.02.99.25.34.42.73.48,1.15.07.42.02.89-.16,1.41Z" style="fill: #333b8c;"/>
      <path d="m79.26,174.05l2.64-8.15c.15-.42.34-.71.6-.86.26-.15.54-.18.85-.08.32.1.54.29.67.56.13.27.12.62-.02,1.05l-2.65,8.15c-.13.43-.33.72-.6.86-.26.15-.55.17-.87.07-.3-.1-.51-.28-.63-.56-.13-.28-.12-.63.02-1.05Z" style="fill: #333b8c;"/>
      <path d="m87.75,178.03l-3.15-1.03c-.46-.15-.76-.36-.88-.62-.13-.27-.12-.63.02-1.07l2.53-7.77c.15-.46.35-.75.62-.89.26-.14.62-.13,1.07.02l3.35,1.09c.5.16.91.33,1.26.51.34.18.63.4.85.67.2.23.36.48.47.76.11.29.18.58.19.88.02.31-.03.6-.12.91-.34,1.03-1.1,1.62-2.29,1.77,1.22.87,1.62,1.94,1.22,3.19-.19.58-.5,1.05-.95,1.42-.45.37-.96.58-1.54.63-.36.03-.75,0-1.17-.07-.44-.08-.92-.21-1.47-.39Zm1.34-4.64l-2.18-.71-.98,3.02,2.26.73c1.41.46,2.29.18,2.62-.84.17-.52.11-.96-.18-1.32-.29-.35-.79-.65-1.53-.89Zm-.82-4.88l-.87,2.68,1.92.62c.51.17.94.25,1.25.24.32,0,.6-.12.84-.35.18-.16.31-.37.39-.61.17-.52.1-.93-.22-1.22-.31-.29-.85-.56-1.61-.81l-1.7-.55Z" style="fill: #333b8c;"/>
    </g>
    <g>
      <path d="m112.39,179.04c-.03.66-.22,1.24-.58,1.75-.36.51-.87.9-1.54,1.17-.66.27-1.44.39-2.33.35-1.08-.05-1.95-.28-2.64-.72-.48-.31-.86-.72-1.15-1.22-.29-.5-.43-.98-.41-1.44,0-.27.11-.49.3-.67.19-.18.43-.27.72-.26.24,0,.42.09.59.25.15.15.28.38.38.67.13.35.26.65.4.89.16.24.37.44.66.6.28.16.66.25,1.14.27.66.03,1.19-.1,1.61-.39.42-.29.63-.66.66-1.11.02-.36-.09-.66-.29-.89-.21-.23-.49-.42-.83-.55-.34-.13-.8-.28-1.38-.43-.77-.22-1.42-.46-1.93-.72-.51-.27-.92-.62-1.22-1.05-.29-.43-.42-.97-.4-1.59.03-.6.21-1.13.55-1.57.35-.45.83-.79,1.46-1.02.63-.22,1.36-.32,2.19-.28.67.03,1.24.13,1.72.32.48.18.88.42,1.18.71.31.29.53.59.67.89.13.31.2.6.19.89-.01.26-.11.49-.3.7-.2.2-.43.3-.71.29-.25-.01-.44-.08-.56-.21-.13-.13-.26-.34-.4-.64-.18-.42-.41-.75-.68-.99-.26-.24-.71-.37-1.32-.4-.57-.02-1.03.08-1.39.32-.36.24-.54.53-.56.88,0,.21.04.41.16.57.11.16.27.31.47.43.21.12.41.22.62.29.21.07.56.18,1.04.32.61.17,1.15.35,1.64.54.5.19.91.42,1.25.68.33.26.59.58.77.97.18.39.26.85.24,1.4Z" style="fill: #333b8c;"/>
      <path d="m121.65,173.5l-4.95-.2-.11,2.67,4.57.18c.33.01.58.1.74.26.16.16.24.36.22.6,0,.25-.1.45-.27.6-.17.15-.42.22-.76.21l-4.57-.18-.12,3.09,5.13.21c.35.01.61.1.77.27.18.17.26.38.24.65,0,.26-.1.46-.28.62-.18.15-.45.22-.79.21l-5.98-.24c-.48-.02-.82-.14-1.02-.36-.2-.22-.29-.57-.27-1.04l.33-8.17c.02-.32.07-.57.18-.77.1-.19.25-.34.46-.42.2-.08.46-.12.77-.1l5.81.23c.36.02.61.1.77.26.16.16.24.37.24.62-.02.26-.11.46-.28.61-.18.15-.44.22-.79.2Z" style="fill: #333b8c;"/>
      <path d="m126.05,171.97l2.87.11c.75.03,1.38.12,1.9.29.54.16,1.01.44,1.43.84,1.09,1.01,1.6,2.51,1.52,4.49-.03.65-.11,1.25-.25,1.78-.13.53-.33,1.01-.59,1.44-.26.42-.57.8-.95,1.12-.3.25-.63.45-.98.59-.36.15-.73.24-1.14.29-.39.05-.85.06-1.35.04l-2.86-.12c-.4-.02-.7-.09-.9-.22-.19-.13-.32-.3-.37-.53-.05-.22-.07-.51-.05-.86l.32-7.97c.02-.47.13-.81.36-1.02.22-.2.57-.3,1.05-.28Zm.78,1.77l-.3,7.38,1.67.07c.36.01.65.02.86,0,.21-.01.42-.05.65-.12.22-.07.42-.18.59-.31.76-.59,1.17-1.65,1.23-3.17.05-1.07-.09-1.89-.39-2.43-.31-.55-.69-.9-1.16-1.07-.47-.16-1.03-.26-1.71-.29l-1.45-.06Z" style="fill: #333b8c;"/>
    </g>
    <g>
      <path d="m149.85,176.21c.17.63.16,1.25-.03,1.85-.2.59-.56,1.12-1.12,1.58-.56.46-1.26.8-2.12,1.04-1.03.28-1.95.31-2.73.1-.55-.15-1.04-.42-1.46-.81-.43-.39-.7-.8-.83-1.25-.06-.26-.04-.5.09-.73.13-.23.34-.39.61-.46.22-.06.44-.04.62.06.2.1.38.28.57.53.22.3.44.54.66.72.21.18.48.31.8.37.32.07.72.05,1.17-.08.63-.17,1.1-.46,1.42-.86.31-.4.41-.82.29-1.26-.09-.35-.28-.6-.54-.76-.27-.16-.59-.25-.96-.27-.37-.03-.85-.03-1.45,0-.8.03-1.49,0-2.06-.1-.57-.1-1.06-.31-1.47-.64-.41-.32-.7-.79-.85-1.4-.17-.58-.14-1.13.05-1.66.2-.54.55-1.01,1.09-1.41.53-.4,1.2-.71,2.01-.93.64-.17,1.22-.25,1.74-.21.51.03.96.14,1.35.32.38.18.68.4.9.65.23.25.37.51.45.79.07.25.04.5-.08.75-.13.25-.32.41-.59.49-.25.06-.44.05-.6-.03-.17-.09-.35-.25-.58-.49-.3-.34-.61-.59-.93-.74-.33-.15-.79-.14-1.38.02-.56.15-.96.39-1.24.72-.27.33-.36.66-.26,1.01.05.21.16.37.32.5.16.12.34.21.57.27.23.05.46.09.68.09.22,0,.59,0,1.09,0,.63-.02,1.21-.01,1.74.03.53.04.99.13,1.39.28.4.15.74.37,1.03.69.29.31.51.73.65,1.26Z" style="fill: #333b8c;"/>
      <path d="m160.55,173.14c.09.33.1.72.04,1.15-.05.44-.21.89-.47,1.36-.25.47-.62.9-1.11,1.28-.49.38-1.09.68-1.82.87-.55.15-1.07.23-1.56.25-.48.02-.93-.03-1.37-.16-.42-.12-.85-.32-1.25-.6-.37-.25-.71-.56-1.01-.92-.31-.36-.57-.75-.79-1.19-.22-.44-.4-.91-.55-1.43-.23-.85-.31-1.64-.25-2.37.07-.74.26-1.4.59-2,.33-.6.77-1.1,1.32-1.52.55-.42,1.17-.72,1.87-.91.85-.23,1.66-.27,2.41-.11.75.16,1.37.44,1.86.85.5.4.79.82.91,1.27.07.24.04.48-.08.72-.13.23-.31.38-.55.44-.27.07-.49.07-.67-.03-.17-.09-.38-.27-.63-.54-.42-.44-.84-.75-1.29-.9-.45-.16-.94-.16-1.49-.01-.87.24-1.47.76-1.81,1.56-.34.81-.34,1.82,0,3.04.21.82.51,1.46.89,1.94.37.48.81.8,1.31.95.49.16,1.01.16,1.58,0,.61-.17,1.08-.46,1.43-.88.34-.42.54-.95.59-1.59.02-.3.07-.55.15-.77.09-.21.28-.35.58-.44.25-.07.49-.04.72.09.23.13.37.32.45.59Z" style="fill: #333b8c;"/>
    </g>
    <g>
      <path d="m163.08,165.22l1,2.95,4.5-1.53-1-2.95c-.14-.42-.15-.77-.03-1.04.11-.28.33-.47.64-.57.31-.11.6-.09.86.05.27.14.47.43.62.85l2.76,8.12c.14.42.15.77.02,1.05-.13.28-.34.47-.65.58-.31.1-.6.08-.87-.07-.25-.15-.45-.44-.6-.86l-1.18-3.46-4.5,1.53,1.17,3.47c.15.43.15.78.03,1.06-.12.28-.34.47-.65.57-.31.11-.6.08-.86-.07-.26-.15-.46-.43-.6-.86l-2.75-8.11c-.14-.42-.16-.77-.04-1.04.12-.27.33-.46.65-.57.32-.1.61-.09.87.06.26.14.47.43.62.85Z" style="fill: #333b8c;"/>
      <path d="m176.01,159.43c1.07-.36,2.06-.46,2.97-.29.91.18,1.7.59,2.36,1.26.67.66,1.18,1.53,1.55,2.61.27.79.4,1.56.41,2.28,0,.72-.13,1.4-.39,2.02-.27.62-.67,1.17-1.22,1.63-.54.47-1.22.84-2.03,1.11-.81.27-1.57.39-2.3.34-.73-.04-1.38-.23-1.96-.56-.59-.33-1.1-.79-1.55-1.38-.44-.6-.8-1.28-1.06-2.05-.27-.79-.4-1.56-.4-2.29,0-.74.14-1.41.41-2.02.28-.61.68-1.15,1.22-1.6.53-.45,1.19-.81,1.98-1.08Zm4.76,4.29c-.26-.75-.6-1.36-1.02-1.83-.43-.47-.93-.77-1.47-.9-.55-.13-1.12-.1-1.7.1-.42.14-.78.35-1.08.63-.3.28-.53.61-.68.99-.15.39-.22.84-.21,1.35,0,.52.11,1.06.31,1.64.2.59.46,1.09.76,1.51.31.42.66.75,1.03.97.38.22.77.35,1.16.38.4.04.81-.02,1.23-.16.54-.18.99-.48,1.34-.9.35-.42.57-.95.65-1.6.08-.65-.02-1.38-.3-2.19Z" style="fill: #333b8c;"/>
    </g>
    <g>
      <path d="m184.04,156.39l3.48,7.11,4.01-1.96c.32-.16.6-.2.85-.13.25.07.43.23.54.46.11.24.13.48.03.71-.09.23-.3.43-.62.59l-4.78,2.34c-.43.21-.78.26-1.07.17-.28-.1-.53-.36-.74-.79l-3.67-7.52c-.2-.4-.25-.74-.17-1.03.08-.29.27-.5.56-.64.3-.15.59-.17.86-.06.28.11.53.37.72.77Z" style="fill: #333b8c;"/>
      <path d="m200.15,157.97l-1.06-1-3.97,1.94.14,1.48c.06.58.07.99.02,1.22-.04.23-.21.42-.5.57-.25.12-.52.14-.79.05-.29-.09-.48-.25-.59-.48-.07-.13-.11-.28-.14-.45s-.05-.4-.06-.7l-.61-7.57c-.02-.21-.04-.48-.06-.78-.02-.31-.02-.57,0-.79.03-.22.11-.43.25-.63.13-.2.33-.36.6-.49.28-.13.54-.19.77-.18.24.01.45.08.64.18.2.11.38.24.56.39.17.15.39.35.67.61l5.63,5.05c.44.38.71.69.81.9.11.23.12.48.02.76-.09.28-.27.49-.54.62-.15.08-.3.11-.44.11-.14,0-.27-.03-.39-.09-.12-.06-.28-.17-.46-.32-.18-.16-.34-.29-.48-.41Zm-5.24-.8l2.92-1.43-3.44-3.31.53,4.74Z" style="fill: #333b8c;"/>
    </g>
    <path d="m211.13,148.5h-4.96v2.67h4.56c.34,0,.59.07.76.23.16.15.25.35.25.6s-.08.45-.24.61c-.16.15-.41.23-.76.23h-4.56v3.09h5.13c.34,0,.61.08.78.24.18.16.27.37.27.64,0,.25-.09.46-.27.62-.17.16-.44.24-.78.24h-5.99c-.48,0-.83-.11-1.03-.32-.21-.21-.32-.56-.32-1.03v-8.17c0-.32.05-.58.14-.78.09-.2.24-.35.44-.44.2-.09.46-.14.77-.14h5.82c.34,0,.61.08.78.23.17.16.26.36.26.61s-.09.46-.26.62c-.17.15-.43.23-.78.23Z" style="fill: #333b8c;"/>
    <path d="m94.03,178.96l1.98-8.67c.1-.45.28-.76.54-.94.26-.18.55-.23.87-.16.33.08.58.25.74.52.15.27.18.63.07,1.09l-1.98,8.67c-.1.45-.28.77-.54.95-.26.18-.55.23-.89.15-.32-.07-.56-.25-.71-.52-.16-.27-.19-.63-.08-1.09Z" style="fill: #333b8c;"/>
  </g>
  <g>
    <g>
      <g>
        <path d="m293.75,72.42h-1.43c-1.83,0-6.83,0-9.06.69-2.58.8-4.3,4.82-5.11,6.66-.11.29-.29.34-.57.29l-1.04-.29c-.17-.06-.34-.11-.23-.46.57-2.06,2.58-9.46,2.7-10.09.11-.75.34-.92.56-.92.29,0,.47.06.7.23l.74.52c1.03.75,1.6.92,3.27.98,3.04.11,5.45.34,10.84.34h2.75c6.26,0,8.71-.23,11.53-.34,1.26-.06,2.01-.23,2.98-.8l1.09-.69c.28-.17.45-.23.68-.23.29,0,.39.17.51.92.12.69,1.21,7.8,1.67,10.32.05.29-.06.4-.35.46l-.91.23c-.24.06-.29,0-.46-.4-.46-1.09-2.18-5.51-4.08-6.42-1.72-.86-7.1-.97-9.92-.97h-1.6v16.35c0,.8,0,16.86.05,17.84.12,1.43.57,2.29,1.95,2.29h3.61c.53,0,.58.18.58.58v1.2c0,.29-.05.46-.58.46-.56,0-2.4-.17-8.02-.17s-7.92.17-8.72.17c-.46,0-.51-.23-.51-.57v-1.09c0-.4.05-.58.4-.58h3.9c1.14,0,1.84-.69,1.9-1.38.17-1.66.17-19.27.17-20.36v-14.74Z" style="fill: #FFFFFF;"/>
        <path d="m325.26,88.37c0-3.56-.11-11.3-.11-12.22,0-2.92-.41-3.73-2.53-3.73h-2.7c-.29,0-.34-.12-.34-.46v-1.38c0-.29.18-.4.46-.4,1.14,0,2.97.17,8.03.17,4.47,0,6.54-.17,7.63-.17.4,0,.57.06.57.29v1.49c0,.34-.11.46-.45.46h-2.93c-1.95,0-2.24.97-2.24,3.27,0,.8-.11,8.38-.11,11.59v.98c0,.29.18.46.7.46h21.22c.86,0,1.15-.11,1.15-.86v-.57c0-3.27-.18-11.24-.18-11.93,0-1.83-.23-2.92-1.89-2.92h-2.98c-.28,0-.4-.12-.4-.4v-1.49c0-.23.05-.34.34-.34,1.21,0,3.67.17,7.57.17s6.26-.17,7.34-.17c.41,0,.47.11.47.46v1.38c0,.34-.11.4-.47.4h-2.58c-1.66,0-1.83.97-1.83,3.04,0,.8-.12,10.5-.12,12.62v1.95c0,1.83.12,12.73.18,16,0,2.06.57,2.87,2.29,2.87h2.53c.4,0,.52.12.52.4v1.38c0,.34-.12.46-.46.46-1.09,0-3.04-.17-7.23-.17-4.99,0-6.82.17-8.54.17-.23,0-.34-.17-.34-.4v-1.43c0-.29.11-.4.46-.4h3.61c1.38,0,1.55-1.09,1.55-2.64.06-2.7.18-11.93.18-14v-.8c0-.63-.29-.69-1.26-.69h-20.99c-.63,0-.81.17-.81.57v1.21c0,1.55.06,10.38.11,14.4.07,1.38.63,1.95,1.84,1.95h2.81c.34,0,.46.12.46.4v1.43c0,.29-.11.4-.46.4-1.09,0-3.09-.17-7.22-.17-4.93,0-6.66.17-7.97.17-.28,0-.4-.12-.4-.4v-1.49c0-.23.17-.35.4-.35h3.38c1.44,0,1.61-1.38,1.61-2.75.06-2.69.17-13.82.17-15.31v-2.47Z" style="fill: #FFFFFF;"/>
        <path d="m380.75,89c.46,0,6.6-.23,7.29-.34,1.66-.29,2.12-.75,2.64-2.52.18-.57.4-1.72.46-2.81,0-.29.17-.4.4-.4l1.43.06c.29,0,.4.23.34.46-.18.97-.18,5.68-.18,6.54,0,2.01.23,4.76.34,5.96,0,.29-.11.4-.34.46l-1.26.17c-.29.06-.41-.11-.46-.52-.12-.75-.46-2.07-.63-2.7-.34-1.21-.97-2.07-2.46-2.24-2.69-.29-6.65-.29-7.57-.29v3.56c0,3.1.12,8.66.12,9.81.05,2.98,1.49,4.13,3.26,4.47,1.15.23,2.81.4,4.25.4.97,0,3.84-.06,5.05-.18.97-.11,3.5-.74,4.99-2,.68-.57,3.9-4.71,4.7-6.02.18-.29.35-.52.7-.35l.92.52c.28.17.28.34.11.8l-3.04,8.43c-.17.52-.57.86-1.26.86-.29,0-1.54-.06-4.99-.12-3.45,0-9-.06-17.95-.06-2.13,0-3.73.06-4.88.06-1.21.06-1.95.12-2.47.12-.35,0-.52-.12-.52-.4v-1.55c0-.23.17-.29.57-.29h2.29c2.64,0,2.87-.4,2.87-2.52v-19.22c0-4.76-.11-11.93-.17-12.5-.22-1.83-.8-2.24-2.92-2.24h-2.07c-.29,0-.46-.06-.46-.4v-1.55c0-.17.12-.29.41-.29,1.26,0,3.27.17,7.05.17h2.53c5.67,0,11.35-.06,17.03-.06.92,0,2.01-.11,2.3-.11s.4.11.46.29c.23.8,2.75,8.66,2.92,9.24.06.23.06.4-.17.52l-.86.46c-.17.12-.4-.05-.45-.17-.11-.23-4.36-5.68-5.74-6.54-1.21-.8-2.81-1.49-4.36-1.55l-10.21-.23v16.81Z" style="fill: #FFFFFF;"/>
      </g>
      <g>
        <path d="m485.37,77.33c0-3.62-1.84-5.64-4.05-5.7l-2.51-.06c-.31,0-.37-.25-.37-.43v-1.59c0-.24.06-.37.37-.37s.79.06,1.71.06c.92.06,2.27.12,4.35.12s3.37-.12,4.1-.12c.8,0,1.29.24,1.77.8.32.37,12.19,15.81,12.87,16.66.67.86,11.03,13.54,12.49,15.5h.25v-7.29c0-5.45-.07-8.46-.19-11.52-.06-2.39-.36-8.39-.73-9.43-.49-1.53-1.65-2.39-3.38-2.39h-1.95c-.24,0-.37-.12-.37-.43v-1.59c0-.24.13-.37.37-.37.86,0,2.81.18,6.73.18,3.68,0,5.15-.18,5.95-.18.43,0,.49.18.49.43v1.53c0,.25-.12.43-.36.43h-1.66c-1.65,0-2.26,1.04-2.38,3.37-.25,4.1-.25,10.17-.25,14.15v22.91c0,.86-.06,1.47-.31,1.47-.73,0-1.29-.73-1.47-.98-.05-.12-3.67-4.65-7.47-9.43-4.29-5.33-8.76-10.96-9.13-11.33-.68-.61-11.95-14.76-12.31-15.25h-.37v13.6c0,5.7.49,15.68.6,16.91.25,2.39.62,3.55,2.27,3.55h1.84c.43,0,.49.18.49.55v1.35c0,.37-.07.49-.49.49-.62,0-4.29-.18-5.94-.18-1.3,0-5.52.18-6.13.18-.25,0-.31-.12-.31-.43v-1.59c0-.18.06-.37.37-.37h2.09c1.78,0,2.45-.74,2.75-3.74.13-1.17.25-8.15.25-19.05v-10.42Z" style="fill: #FFFFFF;"/>
        <path d="m563.34,99.2c0-2.2-.68-2.82-2.51-2.82h-2.58c-.3,0-.43-.12-.43-.37v-1.53c0-.37.06-.49.37-.49.86,0,3.62.18,7.79.18,4.4,0,6.37-.18,7.23-.18.43,0,.49.18.49.43v1.47c0,.24-.07.49-.43.49h-2.39c-1.09,0-1.89.43-1.89,2.33v8.09c0,.86.24,1.47.24,1.96s-.37.73-.98.98c-4.96,2.51-9.86,3.92-16.72,3.92-5.45,0-12.93-2.02-17.15-6.98-3.74-4.23-5.64-9.44-5.64-16.85,0-5.57,2.4-11.52,6.92-15.56,4.35-3.74,9.86-5.82,17.22-5.82,5.27,0,9.99,1.96,12.07,3.55.67.55,1.04.43,1.41-.06l.92-1.1c.24-.24.48-.55.86-.55.42,0,.54.31.54.73l.19,11.7c0,.31-.06.55-.3.55l-1.1.12c-.24,0-.43-.18-.5-.49-.49-1.71-1.52-4.59-3.67-7.23-1.84-2.27-5.64-5.02-11.15-5.02-4.23,0-8.02,1.04-11.7,4.96-3.31,3.49-5.39,8.58-5.39,14.09,0,7.23,2.02,13.54,5.81,17.15,3.07,2.94,6.81,4.35,10.78,4.35,4.9,0,7.9-.86,10.05-2.08,1.41-.86,1.66-2.21,1.66-5.39v-4.54Z" style="fill: #FFFFFF;"/>
        <path d="m584.47,85.3c0-3.92-.12-10.41-.19-11.52-.12-1.59-.43-2.2-2.26-2.2h-2.88c-.36,0-.43-.31-.43-.61v-1.35c0-.31.06-.43.43-.43.68,0,2.88.18,7.97.18,5.94,0,8.51-.18,9.06-.18.49,0,.55.18.55.49v1.41c0,.31-.13.49-.61.49h-3.67c-1.9,0-2.15.61-2.15,2.39,0,.8-.19,10.05-.19,14.33v5.27c0,1.04,0,14.27.19,16.79,1.35.12,13.47.24,15.37,0,3.62-.55,7.29-7.9,8.15-10.29.11-.24.24-.37.49-.24l.97.37c.19.12.19.18.13.55-.19.43-2.64,10.54-3,12.19-.8-.06-5.57-.12-11.03-.12-5.45-.06-11.45-.06-14.76-.06-2.38,0-4.16.06-5.44.06-1.23.06-1.97.12-2.39.12s-.49-.12-.49-.43v-1.53c0-.31.06-.43.43-.43h2.94c2.26,0,2.63-.86,2.63-1.65,0-1.16.19-16.42.19-20.15v-3.43Z" style="fill: #FFFFFF;"/>
        <path d="m623.19,87.07c0-1.47-.19-12.5-.25-13.42-.13-1.47-.73-2.08-3.06-2.08h-3.56c-.3,0-.49-.12-.49-.37v-1.65c0-.24.18-.37.42-.37.74,0,3.87.18,9.57.18s7.41-.18,8.27-.18c.3,0,.43.18.43.43v1.53c0,.31-.19.43-.5.43h-2.89c-1.22,0-2.14.49-2.14,1.71,0,.61-.18,14.15-.18,14.89v4.72c0,.61.18,14.76.18,15.44,0,1.9.92,2.21,2.88,2.21h2.51c.31,0,.49.12.49.43v1.59c0,.24-.18.37-.55.37-.73,0-3.19-.18-8.51-.18-5.82,0-8.46.18-9.13.18-.3,0-.49-.12-.49-.37v-1.65c0-.25.18-.37.49-.37h3.44c1.22,0,2.51-.18,2.75-1.78.13-.92.31-14.15.31-17.4v-4.29Z" style="fill: #FFFFFF;"/>
        <path d="m645.49,110.47c-.74-.55-1.11-.74-1.41-.74-.37,0-.61.43-.98,1.04-.37.67-.67.73-1.1.73-.38,0-.68-.3-.55-.98.24-1.53.86-9.31,1.03-11.09.06-.37.19-.37.43-.37l.92.06c.25,0,.37.12.37.49.05,1.96.18,3.98,2.2,7.11,1.83,2.88,5.2,4.53,8.58,4.53,3.67,0,8.33-2.27,8.33-7.78,0-6.31-4.54-8.64-9.44-10.35-1.89-.67-6.31-2.21-8.94-4.96-2.02-2.02-3.06-4.9-3.06-8.94,0-3.06,1.89-6.07,3.8-7.84,2.21-2.08,5.27-2.94,8.57-2.94,3.49,0,6.19,1.04,7.24,1.53.55.31.86.24,1.16-.06l.79-.73c.31-.24.49-.37.8-.37s.48.49.48,1.04c0,2.15.8,8.39.86,9.74,0,.31-.05.43-.31.49l-.73.18c-.18.06-.3,0-.36-.18-.5-1.78-1.29-4.17-3.81-6.8-1.65-1.78-3.8-2.63-6.67-2.63-5.46,0-7.41,4.04-7.41,7.17,0,1.71.37,3.74,1.89,5.33,1.78,1.78,5.21,3.12,6.99,3.68,4.23,1.35,7.66,2.39,9.86,5.08,1.59,1.9,2.7,4.29,2.7,8.33,0,7.23-4.41,13.41-12.5,13.41-4.29,0-7.29-1.29-9.74-3.18Z" style="fill: #FFFFFF;"/>
        <path d="m679.12,88.61c0-3.8-.13-12.07-.13-13.05,0-3.12-.43-3.98-2.7-3.98h-2.87c-.3,0-.37-.12-.37-.49v-1.47c0-.31.18-.43.49-.43,1.23,0,3.18.18,8.58.18,4.78,0,6.98-.18,8.14-.18.43,0,.61.06.61.3v1.59c0,.37-.12.49-.49.49h-3.13c-2.09,0-2.39,1.04-2.39,3.49,0,.86-.12,8.94-.12,12.37v1.04c0,.31.18.49.73.49h22.66c.92,0,1.23-.12,1.23-.92v-.61c0-3.49-.18-12-.18-12.74,0-1.96-.25-3.12-2.02-3.12h-3.19c-.3,0-.42-.12-.42-.43v-1.59c0-.24.06-.37.36-.37,1.29,0,3.92.18,8.08.18s6.68-.18,7.84-.18c.43,0,.49.12.49.49v1.47c0,.37-.12.43-.49.43h-2.75c-1.78,0-1.96,1.04-1.96,3.25,0,.86-.11,11.21-.11,13.48v2.08c0,1.96.11,13.6.18,17.09,0,2.21.62,3.06,2.45,3.06h2.7c.43,0,.56.12.56.43v1.47c0,.37-.13.49-.49.49-1.16,0-3.24-.18-7.72-.18-5.33,0-7.29.18-9.12.18-.25,0-.37-.18-.37-.43v-1.53c0-.31.12-.43.49-.43h3.86c1.46,0,1.65-1.16,1.65-2.82.07-2.88.18-12.74.18-14.95v-.86c0-.67-.3-.73-1.34-.73h-22.42c-.67,0-.86.18-.86.61v1.29c0,1.65.06,11.09.12,15.37.06,1.47.67,2.09,1.95,2.09h3c.36,0,.49.12.49.43v1.53c0,.31-.13.43-.49.43-1.16,0-3.31-.18-7.72-.18-5.27,0-7.11.18-8.51.18-.31,0-.42-.12-.42-.43v-1.59c0-.25.18-.37.42-.37h3.61c1.54,0,1.71-1.47,1.71-2.94.07-2.88.19-14.76.19-16.36v-2.63Z" style="fill: #FFFFFF;"/>
      </g>
      <path d="m442.03,78.25c.68,0,9.74-.34,10.75-.51,2.45-.42,3.13-1.1,3.9-3.72.26-.85.59-2.54.68-4.15,0-.42.25-.59.59-.59l2.12.08c.42,0,.59.34.5.68-.25,1.44-.25,8.38-.25,9.65,0,2.96.34,7.02.51,8.8,0,.42-.17.59-.51.68l-1.86.25c-.42.09-.59-.17-.68-.76-.17-1.1-.68-3.05-.93-3.98-.51-1.78-1.44-3.05-3.64-3.3-3.98-.42-9.82-.42-11.18-.42v5.25c0,4.57.18,12.78.18,14.47.09,4.4,2.19,6.1,4.82,6.6,1.69.34,4.15.6,6.27.6,1.43,0,5.67-.09,7.44-.26,1.44-.17,5.17-1.1,7.37-2.96,1.01-.85,5.75-6.94,6.94-8.89.26-.42.51-.76,1.02-.51l1.36.76c.42.26.42.51.16,1.19l-4.48,12.44c-.25.76-.85,1.27-1.86,1.27-.42,0-2.28-.08-7.36-.17-5.08,0-13.29-.08-26.5-.08-3.14,0-5.5.08-7.19.08-1.78.08-2.88.17-3.64.17-.51,0-.76-.17-.76-.59v-2.29c0-.34.25-.42.85-.42h3.38c3.9,0,4.23-.59,4.23-3.72v-28.36c0-7.02-.16-17.6-.25-18.45-.34-2.71-1.18-3.3-4.32-3.3h-3.05c-.42,0-.68-.08-.68-.59v-2.28c0-.25.17-.42.59-.42,1.86,0,4.82.25,10.41.25h3.72c8.38,0,16.76-.08,25.14-.08,1.36,0,2.96-.17,3.38-.17s.59.17.68.42c.34,1.18,4.06,12.78,4.32,13.63.08.34.08.59-.25.76l-1.27.68c-.25.17-.59-.08-.67-.25-.17-.34-6.44-8.38-8.47-9.65-1.78-1.18-4.15-2.2-6.44-2.29l-15.07-.34v24.8Z" style="fill: #FFFFFF;"/>
      <g>
        <path d="m794.8,108.02c-4.41-4.16-6.55-11.27-6.55-17.15s1.84-11.58,6.25-16.23c3.12-3.31,8.64-6.19,15.32-6.19,5.57,0,10.16,2.08,12.36,3.37.8.49,1.11.43,1.23,0l.49-1.78c.12-.37.25-.37.79-.37s.68.12.68.98c0,1.16,1.22,10.17,1.52,11.88.07.31,0,.55-.24.61l-.92.24c-.3.06-.43,0-.62-.49-.86-2.02-2.21-4.96-4.78-7.6-2.57-2.63-5.81-4.72-10.65-4.72-10.97,0-15.38,9.74-15.31,18.68,0,3.55,1.1,10.48,5.88,15.74,4.17,4.66,7.66,5.14,11.76,5.14,6.93,0,12.31-3.8,15.14-7.78.18-.31.3-.37.49-.18l.79.61c.18.12.31.25.12.55-3.67,5.33-9.61,10.29-18.25,10.29-7.23,0-11.81-2.27-15.5-5.64Z" style="fill: #FFFFFF;"/>
        <path d="m839.21,88.61c0-3.8-.13-12.07-.13-13.05,0-3.12-.43-3.98-2.69-3.98h-2.88c-.31,0-.37-.12-.37-.49v-1.47c0-.31.18-.43.49-.43,1.22,0,3.18.18,8.57.18,4.78,0,6.98-.18,8.15-.18.43,0,.62.06.62.3v1.59c0,.37-.13.49-.49.49h-3.13c-2.08,0-2.38,1.04-2.38,3.49,0,.86-.13,8.94-.13,12.37v1.04c0,.31.19.49.74.49h22.67c.92,0,1.22-.12,1.22-.92v-.61c0-3.49-.18-12-.18-12.74,0-1.96-.25-3.12-2.01-3.12h-3.19c-.31,0-.43-.12-.43-.43v-1.59c0-.24.06-.37.37-.37,1.28,0,3.92.18,8.08.18s6.68-.18,7.84-.18c.43,0,.5.12.5.49v1.47c0,.37-.12.43-.5.43h-2.75c-1.78,0-1.97,1.04-1.97,3.25,0,.86-.11,11.21-.11,13.48v2.08c0,1.96.11,13.6.18,17.09,0,2.21.61,3.06,2.45,3.06h2.7c.42,0,.55.12.55.43v1.47c0,.37-.13.49-.49.49-1.17,0-3.25-.18-7.72-.18-5.33,0-7.29.18-9.13.18-.25,0-.37-.18-.37-.43v-1.53c0-.31.12-.43.49-.43h3.86c1.47,0,1.65-1.16,1.65-2.82.07-2.88.18-12.74.18-14.95v-.86c0-.67-.3-.73-1.34-.73h-22.43c-.67,0-.86.18-.86.61v1.29c0,1.65.07,11.09.13,15.37.06,1.47.67,2.09,1.96,2.09h3c.37,0,.49.12.49.43v1.53c0,.31-.13.43-.49.43-1.16,0-3.31-.18-7.72-.18-5.27,0-7.11.18-8.51.18-.31,0-.43-.12-.43-.43v-1.59c0-.25.18-.37.43-.37h3.61c1.54,0,1.72-1.47,1.72-2.94.06-2.88.19-14.76.19-16.36v-2.63Z" style="fill: #FFFFFF;"/>
        <path d="m895.2,109.68c-4.36-2.63-9-9.25-9-18.19,0-3.74.97-9.56,5.69-15.25,5.39-6.56,11.46-7.78,16.61-7.78,3.86,0,8.88.79,13.72,4.84,4.47,3.86,8.4,9.86,8.4,18.32,0,4.47-1.41,9.13-4.6,13.42-3.73,4.96-9.19,8.64-17.64,8.64-3.01,0-8.33-.98-13.17-3.98Zm29.4-17.58c0-13.42-9.56-21.32-16.35-21.32-.92,0-5.08-.74-9.68,3.61-4.1,3.92-6.13,10.11-6.13,15.13,0,16.11,11.21,21.81,16.41,21.81,13.49,0,15.75-13.78,15.75-19.23Z" style="fill: #FFFFFF;"/>
        <path d="m946.11,109.68c-4.35-2.63-9.01-9.25-9.01-18.19,0-3.74.98-9.56,5.69-15.25,5.39-6.56,11.46-7.78,16.6-7.78,3.86,0,8.89.79,13.73,4.84,4.47,3.86,8.4,9.86,8.4,18.32,0,4.47-1.41,9.13-4.6,13.42-3.73,4.96-9.19,8.64-17.63,8.64-3.01,0-8.33-.98-13.17-3.98Zm29.4-17.58c0-13.42-9.56-21.32-16.35-21.32-.92,0-5.08-.74-9.68,3.61-4.1,3.92-6.13,10.11-6.13,15.13,0,16.11,11.21,21.81,16.41,21.81,13.49,0,15.75-13.78,15.75-19.23Z" style="fill: #FFFFFF;"/>
        <path d="m993.02,85.3c0-3.92-.12-10.41-.19-11.52-.12-1.59-.43-2.2-2.26-2.2h-2.88c-.37,0-.43-.31-.43-.61v-1.35c0-.31.06-.43.43-.43.68,0,2.88.18,7.96.18,5.94,0,8.52-.18,9.07-.18.5,0,.56.18.56.49v1.41c0,.31-.12.49-.62.49h-3.67c-1.9,0-2.15.61-2.15,2.39,0,.8-.19,10.05-.19,14.33v5.27c0,1.04,0,14.27.19,16.79,1.35.12,13.47.24,15.37,0,3.61-.55,7.29-7.9,8.15-10.29.12-.24.24-.37.49-.24l.97.37c.19.12.19.18.13.55-.19.43-2.64,10.54-3,12.19-.79-.06-5.57-.12-11.03-.12-5.45-.06-11.45-.06-14.76-.06-2.39,0-4.16.06-5.45.06-1.24.06-1.97.12-2.4.12s-.49-.12-.49-.43v-1.53c0-.31.07-.43.43-.43h2.94c2.26,0,2.63-.86,2.63-1.65,0-1.16.19-16.42.19-20.15v-3.43Z" style="fill: #FFFFFF;"/>
      </g>
      <path d="m753.32,107.54c-1.01-.76-1.52-1.02-1.95-1.02-.5,0-.84.59-1.34,1.44-.52.93-.94,1.02-1.53,1.02-.5,0-.93-.42-.77-1.36.35-2.11,1.19-12.86,1.45-15.32.09-.51.26-.51.59-.51l1.27.09c.33,0,.51.17.51.67.08,2.71.26,5.5,3.05,9.82,2.54,3.98,7.2,6.27,11.85,6.27,5.08,0,11.51-3.13,11.51-10.75,0-8.72-6.26-11.94-13.03-14.31-2.62-.93-8.72-3.05-12.36-6.86-2.79-2.79-4.24-6.77-4.24-12.36,0-4.23,2.63-8.38,5.26-10.83,3.05-2.88,7.28-4.06,11.85-4.06,4.83,0,8.55,1.44,9.99,2.12.76.42,1.18.34,1.61-.08l1.1-1.02c.42-.34.68-.51,1.1-.51s.68.68.68,1.44c0,2.96,1.1,11.6,1.19,13.46,0,.42-.08.59-.42.68l-1.02.25c-.25.08-.42,0-.51-.25-.68-2.45-1.78-5.75-5.25-9.4-2.28-2.45-5.25-3.64-9.23-3.64-7.53,0-10.24,5.59-10.24,9.91,0,2.37.51,5.16,2.63,7.36,2.46,2.45,7.19,4.31,9.65,5.08,5.84,1.86,10.58,3.3,13.63,7.02,2.2,2.63,3.72,5.93,3.72,11.51,0,9.99-6.1,18.54-17.26,18.54-5.92,0-10.08-1.78-13.46-4.4Z" style="fill: #FFFFFF;"/>
    </g>
    <g>
      <path d="m282.78,141.73c-.28.7-1.82,4.95-1.95,5.53-.03.2-.09.47-.09.61,0,.39.33.62.95.62h1.31c.19,0,.28.05.28.2v.65c0,.2-.09.25-.22.25-.39,0-1.54-.08-3.18-.08-2.04,0-2.66.08-3.05.08-.14,0-.19-.05-.19-.22v-.67c0-.14.11-.2.22-.2h.98c.83,0,1.23-.39,1.62-1.29.19-.44,2.24-5.62,3.05-7.91.2-.56,2.45-6.57,2.71-7.32.07-.28.21-.64.02-.95-.09-.11-.2-.25-.2-.36,0-.08.06-.2.25-.25.79-.17,2.01-1.01,2.32-1.4.14-.14.23-.25.37-.25.16,0,.22.17.31.48.53,1.76,2.71,8.02,3.24,9.81.64,2.18,2.46,7.38,2.85,8.19.48.92,1.2,1.25,1.9,1.25h.92c.16,0,.22.09.22.2v.7c0,.14-.08.19-.28.19-.5,0-1.09-.08-3.36-.08s-3.29.08-3.94.08c-.14,0-.23-.08-.23-.25v-.65c0-.16.08-.2.25-.2h.7c.78,0,1.04-.28.84-1.06-.22-1.01-1.37-4.58-1.76-5.71h-6.87Zm6.54-1.01c-.26-.83-2.52-7.82-2.65-8.24-.09-.2-.14-.39-.23-.39-.11,0-.22.19-.3.42-.14.36-2.8,7.52-2.99,8.22h6.18Z" style="fill: #FFFFFF;"/>
      <path d="m315.34,148.47c-.33-.25-.5-.34-.64-.34-.17,0-.28.2-.45.48-.16.31-.3.34-.5.34-.18,0-.31-.14-.25-.45.11-.7.39-4.25.47-5.06.03-.17.08-.17.2-.17l.41.03c.11,0,.17.05.17.23.02.89.08,1.82,1.01,3.24.84,1.31,2.38,2.06,3.91,2.06,1.67,0,3.8-1.03,3.8-3.55,0-2.88-2.07-3.94-4.31-4.72-.87-.31-2.88-1.01-4.07-2.27-.92-.92-1.4-2.23-1.4-4.08,0-1.4.87-2.77,1.73-3.58,1-.95,2.4-1.34,3.92-1.34,1.59,0,2.82.47,3.29.7.25.14.39.11.53-.03l.37-.33c.14-.11.22-.17.36-.17s.23.22.23.47c0,.98.37,3.83.39,4.44,0,.14-.02.2-.14.23l-.33.08c-.08.03-.14,0-.16-.08-.22-.81-.59-1.9-1.73-3.1-.76-.81-1.74-1.2-3.05-1.2-2.48,0-3.38,1.84-3.38,3.27,0,.78.16,1.7.86,2.43.81.81,2.38,1.42,3.19,1.68,1.92.61,3.49,1.09,4.49,2.32.73.87,1.23,1.96,1.23,3.8,0,3.3-2.01,6.12-5.7,6.12-1.96,0-3.32-.59-4.44-1.45Z" style="fill: #FFFFFF;"/>
      <path d="m340.7,138.8c.23,0,3.22-.11,3.55-.17.81-.14,1.03-.36,1.29-1.23.08-.28.19-.84.21-1.37,0-.14.09-.2.2-.2l.7.03c.14,0,.19.11.17.22-.09.48-.09,2.77-.09,3.19,0,.97.11,2.32.16,2.91,0,.14-.05.19-.16.22l-.61.08c-.14.03-.2-.05-.23-.25-.05-.37-.22-1-.3-1.32-.17-.58-.47-1-1.2-1.09-1.32-.14-3.24-.14-3.69-.14v1.74c0,1.51.05,4.22.05,4.78.03,1.45.73,2.01,1.6,2.18.55.11,1.36.19,2.06.19.48,0,1.87-.03,2.46-.09.48-.05,1.7-.36,2.44-.97.33-.28,1.9-2.3,2.29-2.94.08-.14.16-.25.34-.17l.45.25c.14.09.14.17.05.39l-1.48,4.11c-.09.25-.28.42-.62.42-.14,0-.75-.03-2.43-.05-1.67,0-4.39-.03-8.75-.03-1.03,0-1.82.03-2.38.03-.59.03-.95.05-1.2.05-.18,0-.26-.05-.26-.19v-.76c0-.11.08-.14.28-.14h1.12c1.28,0,1.4-.19,1.4-1.23v-9.36c0-2.32-.05-5.81-.08-6.09-.12-.89-.39-1.09-1.42-1.09h-1.01c-.14,0-.22-.03-.22-.19v-.76c0-.08.05-.14.2-.14.61,0,1.59.08,3.43.08h1.23c2.77,0,5.53-.03,8.3-.03.44,0,.97-.05,1.12-.05s.19.05.22.14c.11.39,1.34,4.22,1.43,4.5.02.11.02.2-.09.25l-.42.22c-.08.06-.2-.03-.22-.08-.06-.11-2.13-2.77-2.8-3.19-.58-.39-1.37-.73-2.13-.75l-4.97-.11v8.19Z" style="fill: #FFFFFF;"/>
      <path d="m364.76,147.35c-2.01-1.9-2.99-5.14-2.99-7.83s.84-5.28,2.85-7.41c1.43-1.51,3.94-2.82,6.99-2.82,2.54,0,4.64.95,5.64,1.54.37.23.51.2.56,0l.22-.81c.06-.17.11-.17.36-.17s.31.06.31.45c0,.53.56,4.64.7,5.42.03.14,0,.25-.11.28l-.42.11c-.14.03-.19,0-.28-.22-.39-.92-1-2.26-2.18-3.47-1.17-1.2-2.65-2.15-4.87-2.15-4.99,0-7.01,4.44-6.99,8.52,0,1.62.51,4.78,2.68,7.18,1.9,2.12,3.5,2.35,5.37,2.35,3.16,0,5.61-1.74,6.9-3.55.09-.14.14-.16.22-.08l.37.28c.08.06.14.12.05.25-1.67,2.43-4.39,4.7-8.33,4.7-3.29,0-5.4-1.04-7.07-2.57Z" style="fill: #FFFFFF;"/>
      <path d="m393.84,148.1c-1.99-1.2-4.1-4.22-4.1-8.3,0-1.71.44-4.36,2.59-6.96,2.46-2.99,5.23-3.55,7.57-3.55,1.76,0,4.06.36,6.26,2.21,2.04,1.76,3.83,4.5,3.83,8.35,0,2.04-.65,4.17-2.1,6.12-1.71,2.26-4.19,3.94-8.05,3.94-1.37,0-3.8-.45-6.01-1.82Zm13.41-8.02c0-6.12-4.36-9.73-7.46-9.73-.42,0-2.32-.34-4.42,1.65-1.87,1.79-2.79,4.61-2.79,6.9,0,7.35,5.11,9.95,7.49,9.95,6.15,0,7.18-6.29,7.18-8.78Z" style="fill: #FFFFFF;"/>
      <path d="m422.21,133.35c0-1.65-.83-2.57-1.84-2.6l-1.15-.03c-.14,0-.17-.11-.17-.19v-.73c0-.11.03-.17.17-.17s.36.03.78.03c.42.03,1.03.06,1.99.06s1.53-.06,1.87-.06c.36,0,.58.11.81.36.14.17,5.57,7.21,5.87,7.6.3.4,5.02,6.18,5.7,7.08h.12v-3.33c0-2.49-.03-3.86-.09-5.26-.03-1.09-.16-3.83-.33-4.3-.23-.7-.76-1.09-1.54-1.09h-.9c-.11,0-.16-.05-.16-.19v-.73c0-.11.05-.17.16-.17.39,0,1.29.08,3.08.08,1.67,0,2.34-.08,2.7-.08.2,0,.23.08.23.19v.7c0,.11-.06.19-.17.19h-.76c-.76,0-1.03.48-1.09,1.54-.11,1.87-.11,4.64-.11,6.45v10.45c0,.39-.03.67-.14.67-.33,0-.59-.34-.67-.44-.03-.05-1.69-2.13-3.42-4.3-1.95-2.43-4-5-4.16-5.17-.32-.28-5.46-6.74-5.62-6.96h-.17v6.21c0,2.6.22,7.15.28,7.71.12,1.09.28,1.62,1.04,1.62h.84c.2,0,.22.09.22.25v.61c0,.17-.02.22-.22.22-.28,0-1.95-.08-2.71-.08-.59,0-2.51.08-2.8.08-.11,0-.14-.05-.14-.19v-.72c0-.09.03-.17.17-.17h.95c.81,0,1.11-.34,1.25-1.7.05-.53.11-3.72.11-8.7v-4.75Z" style="fill: #FFFFFF;"/>
      <path d="m451.76,136.67c0-.73-.09-4.69-.14-5.17-.08-.67-.45-.78-1.21-.78h-1.53c-.14,0-.22-.03-.22-.19v-.76c0-.11.08-.14.2-.14.36,0,1.59.08,4.11.08.73,0,3.52-.08,4.16-.08,3.61,0,6.63.42,9.08,2.51,1.83,1.57,3.11,3.88,3.11,7.13s-.93,5.34-2.78,7.35c-2.68,2.96-6.54,2.96-8.69,2.96-1.76,0-3.88-.08-5.14-.08-2.44,0-3.55.08-3.94.08-.14,0-.19-.05-.19-.19v-.72c0-.12.08-.17.21-.17h1.88c.53,0,.83-.22.89-.67.09-.59.2-6.88.2-9.06v-2.1Zm2.56,2.71c0,.37.04,5.11.07,6.85,0,.56.11,1.01.48,1.56.44.59,1.56.89,2.96.89,2.85,0,5.17-1.23,6.56-3.02,1.18-1.45,2.04-3.74,2.04-6.29,0-2.18-.95-4.69-2.29-6.18-1.45-1.59-3.91-2.68-7.01-2.68-.62,0-1.76,0-2.24.28-.39.25-.5.7-.53,1.31-.04,1.18-.04,4.84-.04,5.28v1.98Z" style="fill: #FFFFFF;"/>
      <path d="m496.13,147.35c-2.02-1.9-2.99-5.14-2.99-7.83s.83-5.28,2.85-7.41c1.43-1.51,3.94-2.82,6.98-2.82,2.54,0,4.64.95,5.64,1.54.37.23.51.2.56,0l.22-.81c.06-.17.11-.17.37-.17s.31.06.31.45c0,.53.56,4.64.7,5.42.02.14,0,.25-.11.28l-.43.11c-.13.03-.19,0-.27-.22-.4-.92-1.01-2.26-2.18-3.47-1.18-1.2-2.66-2.15-4.87-2.15-5,0-7.01,4.44-6.99,8.52,0,1.62.51,4.78,2.69,7.18,1.9,2.12,3.49,2.35,5.36,2.35,3.16,0,5.62-1.74,6.91-3.55.08-.14.14-.16.23-.08l.36.28c.08.06.14.12.05.25-1.68,2.43-4.39,4.7-8.32,4.7-3.3,0-5.4-1.04-7.07-2.57Z" style="fill: #FFFFFF;"/>
      <path d="m526.4,138.8c.22,0,3.21-.11,3.55-.17.81-.14,1.04-.36,1.29-1.23.08-.28.2-.84.23-1.37,0-.14.08-.2.19-.2l.7.03c.14,0,.2.11.16.22-.08.48-.08,2.77-.08,3.19,0,.97.12,2.32.17,2.91,0,.14-.05.19-.17.22l-.62.08c-.14.03-.2-.05-.22-.25-.06-.37-.23-1-.31-1.32-.16-.58-.48-1-1.2-1.09-1.31-.14-3.24-.14-3.69-.14v1.74c0,1.51.05,4.22.05,4.78.02,1.45.73,2.01,1.59,2.18.57.11,1.38.19,2.08.19.48,0,1.87-.03,2.46-.09.47-.05,1.7-.36,2.43-.97.34-.28,1.9-2.3,2.3-2.94.08-.14.17-.25.33-.17l.45.25c.14.09.14.17.05.39l-1.48,4.11c-.08.25-.28.42-.62.42-.14,0-.76-.03-2.43-.05-1.68,0-4.39-.03-8.76-.03-1.03,0-1.82.03-2.37.03-.59.03-.95.05-1.21.05-.16,0-.25-.05-.25-.19v-.76c0-.11.09-.14.28-.14h1.12c1.29,0,1.4-.19,1.4-1.23v-9.36c0-2.32-.05-5.81-.08-6.09-.11-.89-.39-1.09-1.43-1.09h-1c-.14,0-.22-.03-.22-.19v-.76c0-.08.06-.14.19-.14.62,0,1.6.08,3.45.08h1.22c2.77,0,5.54-.03,8.3-.03.45,0,.99-.05,1.12-.05s.2.05.22.14c.12.39,1.35,4.22,1.43,4.5.03.11.03.2-.08.25l-.42.22c-.08.06-.19-.03-.22-.08-.05-.11-2.12-2.77-2.8-3.19-.59-.39-1.37-.73-2.12-.75l-4.97-.11v8.19Z" style="fill: #FFFFFF;"/>
      <path d="m549.91,133.35c0-1.65-.83-2.57-1.84-2.6l-1.14-.03c-.14,0-.17-.11-.17-.19v-.73c0-.11.03-.17.17-.17s.36.03.78.03c.42.03,1.04.06,1.99.06s1.54-.06,1.87-.06c.37,0,.59.11.81.36.14.17,5.57,7.21,5.87,7.6.3.4,5.03,6.18,5.7,7.08h.12v-3.33c0-2.49-.03-3.86-.09-5.26-.03-1.09-.16-3.83-.33-4.3-.23-.7-.76-1.09-1.54-1.09h-.9c-.11,0-.16-.05-.16-.19v-.73c0-.11.05-.17.16-.17.39,0,1.29.08,3.08.08,1.67,0,2.34-.08,2.7-.08.2,0,.23.08.23.19v.7c0,.11-.05.19-.17.19h-.75c-.76,0-1.03.48-1.09,1.54-.11,1.87-.11,4.64-.11,6.45v10.45c0,.39-.03.67-.14.67-.34,0-.6-.34-.67-.44-.03-.05-1.69-2.13-3.42-4.3-1.96-2.43-4-5-4.16-5.17-.31-.28-5.46-6.74-5.62-6.96h-.18v6.21c0,2.6.22,7.15.28,7.71.11,1.09.28,1.62,1.04,1.62h.84c.2,0,.22.09.22.25v.61c0,.17-.02.22-.22.22-.28,0-1.96-.08-2.71-.08-.59,0-2.52.08-2.8.08-.11,0-.14-.05-.14-.19v-.72c0-.09.03-.17.17-.17h.95c.81,0,1.11-.34,1.25-1.7.05-.53.11-3.72.11-8.7v-4.75Z" style="fill: #FFFFFF;"/>
      <path d="m582.5,130.72h-.69c-.89,0-3.33,0-4.42.34-1.26.39-2.1,2.35-2.49,3.24-.06.14-.14.17-.28.14l-.5-.14c-.08-.03-.17-.06-.11-.22.28-1.01,1.26-4.61,1.32-4.92.05-.36.16-.45.27-.45.14,0,.22.03.34.11l.36.25c.5.36.78.44,1.6.47,1.48.05,2.65.17,5.27.17h1.34c3.05,0,4.26-.11,5.62-.17.62-.03.98-.11,1.46-.39l.53-.34c.14-.08.22-.11.34-.11.14,0,.19.08.25.45.05.34.59,3.8.81,5.03.03.14-.02.19-.16.22l-.45.11c-.11.03-.14,0-.22-.2-.23-.53-1.07-2.68-1.99-3.13-.84-.42-3.46-.48-4.83-.48h-.79v7.97c0,.39,0,8.22.03,8.69.06.69.28,1.12.95,1.12h1.76c.25,0,.27.09.27.28v.59c0,.14-.03.22-.27.22-.28,0-1.18-.08-3.91-.08s-3.85.08-4.25.08c-.22,0-.26-.11-.26-.28v-.53c0-.19.03-.28.19-.28h1.91c.56,0,.9-.34.93-.67.08-.81.08-9.39.08-9.92v-7.18Z" style="fill: #FFFFFF;"/>
      <path d="m607.49,149.34c-1.89-.76-2.87-1.99-3.32-3.75-.34-1.25-.45-3.13-.45-6.79v-6.65c0-.98-.19-1.43-1.06-1.43h-1.31c-.17,0-.2-.05-.2-.25v-.62c0-.17.03-.22.26-.22.28,0,1.65.08,3.83.08s3.52-.08,3.82-.08c.23,0,.26.05.26.17v.73c0,.14-.03.19-.23.19h-1.39c-.81,0-1.28.53-1.35,1.15-.02.25-.05,2.21-.05,3.63v1.84c0,1.48.12,5.04.14,5.93.03,1.29.25,2.6.9,3.55,1.04,1.51,2.82,2.01,4.44,2.01s3.21-.53,4.2-1.54c1.09-1.18,1.45-2.85,1.45-4.92v-5.98c0-2.12-.05-3.74-.13-4.44-.08-.73-.54-1.23-1.26-1.23h-1.23c-.16,0-.19-.08-.19-.22v-.67c0-.14.03-.19.19-.19.28,0,1.57.08,3.44.08s2.83-.08,3.08-.08.28.11.28.19v.62c0,.17-.03.28-.17.28h-1.15c-1.03,0-1.12.78-1.2,1.12-.05.28-.05,4.25-.05,4.64s-.05,5.28-.14,6.37c-.17,2.29-.78,4.05-2.35,5.39-1.12,1.03-2.82,1.68-5.25,1.68-1.46,0-2.85-.2-3.78-.59Z" style="fill: #FFFFFF;"/>
      <path d="m632.77,136.79c0-2.07,0-3.86-.03-4.67-.02-.92-.37-1.4-1.06-1.4h-1.12c-.14,0-.16-.08-.16-.19v-.7c0-.14.02-.19.16-.19.26,0,1.12.08,3.47.08,1.57,0,4.16-.08,4.67-.08,2.32,0,4.17.7,5.23,1.7.92.89,1.45,2.15,1.45,3.19,0,3.49-1.59,4.81-5.17,5.59v.06c.67.25,1.06.75,1.29,1.06.33.36,2.31,3.21,2.54,3.58.14.28,1.92,2.82,2.45,3.21.59.42,1.23.47,2.02.47.2,0,.22.11.22.23v.62c0,.16-.02.25-.22.25-.22,0-.95-.08-2.18-.08-.8,0-1.84.06-2.27.08-.31-.28-.92-1.23-1.17-1.59-.23-.33-1.74-2.99-1.87-3.21-.11-.2-1.46-2.21-1.79-2.6-.73-.87-1.4-1.62-3.02-1.62-.26,0-.53,0-.93.08v1.56c0,1.65.03,4.78.07,5.2.05.59.27,1.09.7,1.09h1.76c.19,0,.22.09.22.23v.62c0,.2-.03.25-.31.25-.31,0-1.01-.08-3.66-.08s-3.19.08-3.5.08c-.21,0-.21-.08-.21-.22v-.64c0-.14,0-.23.14-.23h1.15c.61,0,1.09-.19,1.09-.95.05-2.77.05-5.4.05-8.05v-2.71Zm2.51,2.77c.42.08.73.11,1.26.11,5.08,0,6.06-3.49,6.06-4.67,0-1.29-.59-2.52-1.4-3.19-1.09-.86-2.32-1.28-4.64-1.28-.34,0-.7.05-.95.22-.19.14-.34.45-.34.9v7.91Z" style="fill: #FFFFFF;"/>
      <path d="m665.36,144.3c0,1.09.09,2.91.11,3.22.08.89.51.97,1.23.97h1.09c.19,0,.19.09.19.2v.65c0,.16,0,.25-.19.25-.34,0-1.43-.08-3.77-.08-2.52,0-3.39.08-3.69.08-.11,0-.17-.08-.17-.22v-.67c0-.11.03-.2.2-.2h1.37c.73,0,.95-.28.97-.7.03-.39.09-2.6.09-5.2v-1.62c-.37-.73-5-8.61-5.82-9.59-.36-.42-1.01-.67-1.45-.67h-.7c-.16,0-.19-.08-.19-.19v-.73c0-.11.03-.17.19-.17.25,0,1.57.08,3.27.08,2.88,0,3.89-.08,4.16-.08.17,0,.2.05.2.14v.7c0,.14-.03.25-.2.25h-.92c-.84,0-.95.25-.84.92.08.45,3.52,6.51,4.36,8.11,1.03-1.62,4.95-7.44,5.06-7.94.12-.47.26-1.09-.92-1.09h-.76c-.16,0-.2-.08-.2-.25v-.67c0-.11.03-.17.2-.17.28,0,1.43.08,3.29.08,1.65,0,2.27-.08,2.52-.08.2,0,.22.05.22.17v.67c0,.17-.03.25-.22.25h-.69c-.42,0-.89.17-1.37.62-.56.53-5.57,7.77-6.63,9.3v3.66Z" style="fill: #FFFFFF;"/>
      <path d="m700.39,148.1c-1.99-1.2-4.1-4.22-4.1-8.3,0-1.71.44-4.36,2.59-6.96,2.46-2.99,5.23-3.55,7.57-3.55,1.76,0,4.05.36,6.26,2.21,2.04,1.76,3.84,4.5,3.84,8.35,0,2.04-.65,4.17-2.1,6.12-1.71,2.26-4.19,3.94-8.06,3.94-1.37,0-3.8-.45-6.01-1.82Zm13.41-8.02c0-6.12-4.36-9.73-7.46-9.73-.42,0-2.32-.34-4.42,1.65-1.87,1.79-2.79,4.61-2.79,6.9,0,7.35,5.11,9.95,7.49,9.95,6.15,0,7.18-6.29,7.18-8.78Z" style="fill: #FFFFFF;"/>
      <path d="m728.9,137.04c0-1.23-.05-5.17-.05-5.51,0-.53-.39-.81-1.15-.81h-1.62c-.11,0-.2-.05-.2-.17v-.76c0-.11.08-.17.2-.17.17,0,.51.03,1.14.03.65.03,1.6.06,2.94.06.47,0,10.27.03,10.73-.11.08.47.92,4.25,1.11,4.98.03.11,0,.17-.05.2l-.51.2c-.07.03-.14-.03-.21-.2-.26-.45-.99-1.48-1.8-2.57-.48-.64-1.15-1.12-1.95-1.31-.7-.17-5.14-.25-5.98-.25,0,.36-.04,5.98-.04,7.69v1.4c.39,0,3.33-.08,3.67-.14.61-.11.97-.36,1.23-1.23.08-.28.2-.87.28-1.37.02-.11.07-.19.19-.19l.56.03c.12,0,.17.08.17.19-.05.47-.05,2.8-.05,3.19,0,1,.08,2.35.14,2.91,0,.14-.05.19-.2.22l-.54.11c-.13.03-.16-.05-.2-.19-.02-.23-.21-1.06-.3-1.37-.19-.67-.53-1-1.15-1.09-1.32-.17-3.35-.17-3.81-.17v1.03c0,.84.04,5.53.04,5.95,0,.75.14.89,1.09.89h1.36c.18,0,.26.05.26.17v.69c0,.17-.06.22-.22.22-.28,0-1.4-.08-3.8-.08-2.18,0-3.25.08-3.66.08-.11,0-.17-.05-.17-.19v-.76c0-.11.09-.14.2-.14h1.25c.73,0,.95-.11.98-.62.05-.56.11-4.08.11-8.89v-1.96Z" style="fill: #FFFFFF;"/>
      <path d="m769.67,138.8c.21,0,3.21-.11,3.55-.17.81-.14,1.03-.36,1.29-1.23.08-.28.19-.84.22-1.37,0-.14.08-.2.2-.2l.7.03c.13,0,.19.11.16.22-.08.48-.08,2.77-.08,3.19,0,.97.11,2.32.17,2.91,0,.14-.05.19-.17.22l-.62.08c-.14.03-.19-.05-.21-.25-.06-.37-.23-1-.31-1.32-.16-.58-.48-1-1.2-1.09-1.31-.14-3.25-.14-3.69-.14v1.74c0,1.51.05,4.22.05,4.78.02,1.45.72,2.01,1.59,2.18.56.11,1.37.19,2.07.19.48,0,1.87-.03,2.46-.09.47-.05,1.71-.36,2.43-.97.34-.28,1.9-2.3,2.29-2.94.08-.14.17-.25.33-.17l.45.25c.14.09.14.17.05.39l-1.48,4.11c-.08.25-.28.42-.61.42-.14,0-.76-.03-2.43-.05-1.68,0-4.39-.03-8.75-.03-1.03,0-1.82.03-2.37.03-.6.03-.95.05-1.21.05-.16,0-.25-.05-.25-.19v-.76c0-.11.08-.14.28-.14h1.11c1.29,0,1.41-.19,1.41-1.23v-9.36c0-2.32-.05-5.81-.09-6.09-.11-.89-.39-1.09-1.43-1.09h-1c-.14,0-.22-.03-.22-.19v-.76c0-.08.06-.14.19-.14.61,0,1.6.08,3.45.08h1.22c2.77,0,5.53-.03,8.3-.03.45,0,.98-.05,1.12-.05s.19.05.22.14c.11.39,1.35,4.22,1.42,4.5.03.11.03.2-.07.25l-.42.22c-.08.06-.19-.03-.22-.08-.05-.11-2.12-2.77-2.79-3.19-.6-.39-1.37-.73-2.13-.75l-4.97-.11v8.19Z" style="fill: #FFFFFF;"/>
      <path d="m795.8,149.34c0,.16-.03.25-.23.25-.28,0-1.37-.08-3.63-.08-1.65,0-2.76.08-3.02.08-.14,0-.17-.11-.17-.25v-.65c0-.11.03-.2.17-.2h1.09c.44,0,1.03-.34,1.59-.81,1.71-1.51,4.97-6.49,6.35-8.13-.97-1.46-5.2-7.77-5.84-8.41-.26-.25-.73-.42-1.26-.42h-1.23c-.11,0-.14-.11-.14-.22v-.64c0-.14.02-.22.14-.22.27,0,1.57.08,3.97.08,2.8,0,3.97-.08,4.22-.08.2,0,.23.11.23.19v.64c0,.17-.03.25-.26.25h-.98c-1.25,0-1.18.73-.8,1.31.25.42,2.82,4.75,3.49,5.67.79-.98,3.94-5.31,4.22-5.84.3-.56.16-1.15-.56-1.15h-.59c-.14,0-.18-.11-.18-.25v-.64c0-.14.03-.19.2-.19.31,0,1.46.08,3.05.08s2.54-.08,2.82-.08c.19,0,.22.11.22.19v.64c0,.2-.03.25-.16.25h-1.18c-.62,0-.92.2-1.18.36-.53.37-4.97,6.04-6.03,7.49.36.53,5.75,8.92,6.03,9.17.65.59,1.32.76,1.85.76h.92c.19,0,.23.09.23.2v.67c0,.11-.03.22-.23.22-.22,0-1.2-.08-3.54-.08s-3.75.08-3.95.08-.22-.08-.22-.19v-.7c0-.11.02-.2.16-.2h1.09c.56,0,.84-.16.67-.53-.16-.42-4.02-6.71-4.61-7.52-1.09,1.54-4.39,6.29-4.59,6.79-.3.78-.14,1.25.53,1.25h1.09c.19,0,.23.09.23.17v.67Z" style="fill: #FFFFFF;"/>
      <path d="m820.32,147.35c-2.02-1.9-2.99-5.14-2.99-7.83s.83-5.28,2.85-7.41c1.43-1.51,3.94-2.82,6.98-2.82,2.54,0,4.64.95,5.65,1.54.37.23.51.2.56,0l.22-.81c.05-.17.11-.17.37-.17s.31.06.31.45c0,.53.56,4.64.7,5.42.02.14,0,.25-.12.28l-.42.11c-.13.03-.19,0-.27-.22-.4-.92-1.01-2.26-2.18-3.47-1.18-1.2-2.66-2.15-4.86-2.15-5.01,0-7.01,4.44-6.99,8.52,0,1.62.51,4.78,2.69,7.18,1.9,2.12,3.49,2.35,5.36,2.35,3.15,0,5.62-1.74,6.9-3.55.08-.14.14-.16.23-.08l.36.28c.08.06.14.12.06.25-1.68,2.43-4.4,4.7-8.32,4.7-3.3,0-5.4-1.04-7.07-2.57Z" style="fill: #FFFFFF;"/>
      <path d="m850.59,138.8c.22,0,3.21-.11,3.55-.17.81-.14,1.04-.36,1.29-1.23.09-.28.19-.84.22-1.37,0-.14.09-.2.2-.2l.7.03c.13,0,.2.11.16.22-.09.48-.09,2.77-.09,3.19,0,.97.12,2.32.18,2.91,0,.14-.05.19-.18.22l-.62.08c-.14.03-.19-.05-.22-.25-.05-.37-.22-1-.31-1.32-.16-.58-.48-1-1.2-1.09-1.31-.14-3.25-.14-3.69-.14v1.74c0,1.51.06,4.22.06,4.78.02,1.45.72,2.01,1.59,2.18.56.11,1.37.19,2.08.19.47,0,1.87-.03,2.45-.09.48-.05,1.71-.36,2.43-.97.34-.28,1.9-2.3,2.29-2.94.09-.14.18-.25.33-.17l.45.25c.14.09.14.17.05.39l-1.48,4.11c-.09.25-.28.42-.61.42-.14,0-.76-.03-2.43-.05-1.68,0-4.39-.03-8.75-.03-1.03,0-1.82.03-2.37.03-.59.03-.95.05-1.2.05-.16,0-.25-.05-.25-.19v-.76c0-.11.09-.14.28-.14h1.12c1.29,0,1.4-.19,1.4-1.23v-9.36c0-2.32-.05-5.81-.08-6.09-.11-.89-.39-1.09-1.43-1.09h-1.01c-.14,0-.22-.03-.22-.19v-.76c0-.08.06-.14.2-.14.61,0,1.59.08,3.44.08h1.22c2.77,0,5.54-.03,8.3-.03.45,0,.98-.05,1.12-.05s.19.05.21.14c.12.39,1.35,4.22,1.43,4.5.03.11.03.2-.08.25l-.42.22c-.09.06-.2-.03-.23-.08-.05-.11-2.12-2.77-2.79-3.19-.59-.39-1.37-.73-2.12-.75l-4.98-.11v8.19Z" style="fill: #FFFFFF;"/>
      <path d="m874.24,136.98c0-1.79-.05-4.75-.09-5.25-.05-.73-.2-1.01-1.03-1.01h-1.31c-.18,0-.2-.14-.2-.28v-.62c0-.14.02-.19.2-.19.3,0,1.31.08,3.63.08,2.71,0,3.88-.08,4.14-.08.22,0,.25.08.25.22v.64c0,.14-.05.22-.28.22h-1.67c-.87,0-.99.28-.99,1.09,0,.36-.08,4.58-.08,6.54v2.41c0,.47,0,6.51.08,7.66.62.06,6.15.11,7.02,0,1.64-.25,3.32-3.6,3.71-4.7.06-.11.11-.17.23-.11l.45.17c.08.05.08.09.05.25-.09.19-1.21,4.8-1.37,5.56-.36-.03-2.54-.05-5.03-.05-2.49-.03-5.23-.03-6.74-.03-1.09,0-1.9.03-2.48.03-.56.03-.9.05-1.09.05s-.22-.05-.22-.19v-.7c0-.14.03-.2.2-.2h1.34c1.03,0,1.2-.39,1.2-.76,0-.53.09-7.49.09-9.19v-1.56Z" style="fill: #FFFFFF;"/>
      <path d="m899.85,136.98c0-1.79-.05-4.75-.08-5.25-.06-.73-.2-1.01-1.04-1.01h-1.31c-.16,0-.2-.14-.2-.28v-.62c0-.14.03-.19.2-.19.31,0,1.31.08,3.63.08,2.71,0,3.89-.08,4.14-.08.22,0,.25.08.25.22v.64c0,.14-.05.22-.27.22h-1.68c-.86,0-.97.28-.97,1.09,0,.36-.09,4.58-.09,6.54v2.41c0,.47,0,6.51.09,7.66.61.06,6.15.11,7.01,0,1.65-.25,3.33-3.6,3.72-4.7.05-.11.1-.17.22-.11l.44.17c.09.05.09.09.05.25-.09.19-1.2,4.8-1.37,5.56-.36-.03-2.54-.05-5.03-.05-2.49-.03-5.23-.03-6.73-.03-1.09,0-1.9.03-2.48.03-.56.03-.89.05-1.09.05s-.22-.05-.22-.19v-.7c0-.14.03-.2.19-.2h1.34c1.04,0,1.21-.39,1.21-.76,0-.53.08-7.49.08-9.19v-1.56Z" style="fill: #FFFFFF;"/>
      <path d="m928.19,138.8c.23,0,3.22-.11,3.56-.17.81-.14,1.02-.36,1.29-1.23.08-.28.19-.84.22-1.37,0-.14.08-.2.19-.2l.71.03c.14,0,.19.11.17.22-.08.48-.08,2.77-.08,3.19,0,.97.11,2.32.16,2.91,0,.14-.05.19-.16.22l-.62.08c-.14.03-.2-.05-.23-.25-.05-.37-.22-1-.3-1.32-.17-.58-.48-1-1.2-1.09-1.31-.14-3.24-.14-3.69-.14v1.74c0,1.51.06,4.22.06,4.78.03,1.45.74,2.01,1.6,2.18.56.11,1.36.19,2.07.19.47,0,1.87-.03,2.46-.09.48-.05,1.7-.36,2.43-.97.33-.28,1.9-2.3,2.29-2.94.08-.14.16-.25.33-.17l.45.25c.14.09.14.17.05.39l-1.48,4.11c-.09.25-.28.42-.62.42-.14,0-.75-.03-2.44-.05-1.67,0-4.38-.03-8.74-.03-1.03,0-1.82.03-2.38.03-.58.03-.96.05-1.2.05-.17,0-.25-.05-.25-.19v-.76c0-.11.08-.14.28-.14h1.12c1.28,0,1.4-.19,1.4-1.23v-9.36c0-2.32-.06-5.81-.08-6.09-.12-.89-.39-1.09-1.42-1.09h-1.01c-.14,0-.23-.03-.23-.19v-.76c0-.08.06-.14.2-.14.62,0,1.59.08,3.43.08h1.23c2.77,0,5.53-.03,8.3-.03.44,0,.97-.05,1.12-.05s.19.05.22.14c.11.39,1.34,4.22,1.43,4.5.02.11.02.2-.09.25l-.42.22c-.08.06-.2-.03-.22-.08-.06-.11-2.13-2.77-2.8-3.19-.59-.39-1.37-.73-2.13-.75l-4.98-.11v8.19Z" style="fill: #FFFFFF;"/>
      <path d="m951.7,133.35c0-1.65-.83-2.57-1.84-2.6l-1.14-.03c-.14,0-.17-.11-.17-.19v-.73c0-.11.04-.17.17-.17s.36.03.78.03c.43.03,1.04.06,1.99.06s1.54-.06,1.87-.06c.37,0,.59.11.82.36.14.17,5.56,7.21,5.87,7.6.31.4,5.03,6.18,5.7,7.08h.12v-3.33c0-2.49-.04-3.86-.08-5.26-.03-1.09-.16-3.83-.34-4.3-.22-.7-.76-1.09-1.53-1.09h-.9c-.11,0-.16-.05-.16-.19v-.73c0-.11.05-.17.16-.17.39,0,1.29.08,3.08.08,1.68,0,2.35-.08,2.71-.08.19,0,.22.08.22.19v.7c0,.11-.05.19-.16.19h-.76c-.76,0-1.04.48-1.09,1.54-.11,1.87-.11,4.64-.11,6.45v10.45c0,.39-.03.67-.14.67-.34,0-.59-.34-.68-.44-.03-.05-1.68-2.13-3.41-4.3-1.96-2.43-4-5-4.16-5.17-.31-.28-5.45-6.74-5.62-6.96h-.17v6.21c0,2.6.23,7.15.28,7.71.11,1.09.28,1.62,1.03,1.62h.84c.19,0,.22.09.22.25v.61c0,.17-.03.22-.22.22-.28,0-1.96-.08-2.71-.08-.59,0-2.52.08-2.8.08-.11,0-.14-.05-.14-.19v-.72c0-.09.03-.17.18-.17h.95c.81,0,1.12-.34,1.26-1.7.06-.53.11-3.72.11-8.7v-4.75Z" style="fill: #FFFFFF;"/>
      <path d="m981.59,147.35c-2.02-1.9-3-5.14-3-7.83s.83-5.28,2.85-7.41c1.43-1.51,3.93-2.82,6.99-2.82,2.54,0,4.64.95,5.64,1.54.37.23.51.2.56,0l.22-.81c.05-.17.11-.17.37-.17s.31.06.31.45c0,.53.56,4.64.7,5.42.02.14,0,.25-.11.28l-.42.11c-.13.03-.2,0-.28-.22-.4-.92-1-2.26-2.18-3.47s-2.66-2.15-4.87-2.15c-5,0-7.01,4.44-6.99,8.52,0,1.62.51,4.78,2.69,7.18,1.9,2.12,3.49,2.35,5.36,2.35,3.16,0,5.62-1.74,6.9-3.55.08-.14.14-.16.23-.08l.36.28c.09.06.14.12.06.25-1.68,2.43-4.39,4.7-8.32,4.7-3.29,0-5.39-1.04-7.07-2.57Z" style="fill: #FFFFFF;"/>
      <path d="m1011.86,138.8c.22,0,3.21-.11,3.55-.17.81-.14,1.04-.36,1.29-1.23.09-.28.19-.84.22-1.37,0-.14.09-.2.2-.2l.71.03c.13,0,.19.11.16.22-.09.48-.09,2.77-.09,3.19,0,.97.12,2.32.18,2.91,0,.14-.06.19-.18.22l-.61.08c-.14.03-.19-.05-.22-.25-.05-.37-.23-1-.31-1.32-.16-.58-.48-1-1.2-1.09-1.31-.14-3.25-.14-3.69-.14v1.74c0,1.51.06,4.22.06,4.78.02,1.45.72,2.01,1.59,2.18.56.11,1.37.19,2.07.19.47,0,1.87-.03,2.45-.09.48-.05,1.71-.36,2.43-.97.34-.28,1.9-2.3,2.29-2.94.09-.14.18-.25.33-.17l.45.25c.14.09.14.17.05.39l-1.48,4.11c-.08.25-.28.42-.61.42-.14,0-.76-.03-2.44-.05-1.67,0-4.38-.03-8.75-.03-1.03,0-1.82.03-2.37.03-.59.03-.95.05-1.21.05-.16,0-.25-.05-.25-.19v-.76c0-.11.09-.14.28-.14h1.11c1.29,0,1.41-.19,1.41-1.23v-9.36c0-2.32-.06-5.81-.08-6.09-.11-.89-.39-1.09-1.43-1.09h-1.01c-.14,0-.22-.03-.22-.19v-.76c0-.08.06-.14.19-.14.62,0,1.6.08,3.45.08h1.23c2.76,0,5.53-.03,8.3-.03.45,0,.98-.05,1.12-.05s.19.05.22.14c.12.39,1.35,4.22,1.43,4.5.03.11.03.2-.08.25l-.42.22c-.08.06-.19-.03-.22-.08-.06-.11-2.12-2.77-2.79-3.19-.59-.39-1.37-.73-2.13-.75l-4.97-.11v8.19Z" style="fill: #FFFFFF;"/>
    </g>
  </g>
</svg>